<svg width="171" height="52" viewBox="0 0 171 52" fill="none" xmlns="http://www.w3.org/2000/svg">
<path d="M12.6981 6.32818H8.46558V15H6.54507V6.32818H2.30519V4.40767H12.6981V6.32818ZM16.0516 8.7362H22.7955V4.40767H24.716V15H22.7955V10.6715H16.0516V15H14.1311V4.40767H16.0516V8.7362ZM35.6777 10.6715H29.6133V8.7362H35.6777V10.6715ZM36.5419 15H29.6133C29.3474 15 29.0568 14.9532 28.7417 14.8597C28.4265 14.7661 28.1335 14.6134 27.8627 14.4017C27.5968 14.185 27.3727 13.9068 27.1905 13.567C27.0132 13.2223 26.9246 12.8013 26.9246 12.3039V5.37531C26.9246 5.24236 26.9492 5.11678 26.9985 4.9986C27.0477 4.88041 27.1142 4.777 27.1979 4.68836C27.2865 4.59973 27.3899 4.53078 27.5081 4.48154C27.6263 4.4323 27.7543 4.40767 27.8922 4.40767H36.5419V6.32818H28.8451V12.3039C28.8451 12.555 28.9116 12.7471 29.0445 12.8801C29.1775 13.013 29.372 13.0795 29.6281 13.0795H36.5419V15ZM53.8929 10.5681C53.8929 11.2132 53.7797 11.8065 53.5531 12.3482C53.3315 12.8899 53.0238 13.3577 52.6298 13.7517C52.2359 14.1407 51.7681 14.446 51.2264 14.6676C50.6847 14.8892 50.0962 15 49.461 15H44.2756C44.1377 15 44.0097 14.9754 43.8915 14.9261C43.7733 14.8769 43.6699 14.8104 43.5813 14.7267C43.4976 14.6381 43.4311 14.5346 43.3818 14.4165C43.3326 14.2983 43.308 14.1702 43.308 14.0324V5.37531C43.308 5.24236 43.3326 5.11678 43.3818 4.9986C43.4311 4.88041 43.4976 4.777 43.5813 4.68836C43.6699 4.59973 43.7733 4.53078 43.8915 4.48154C44.0097 4.4323 44.1377 4.40767 44.2756 4.40767H49.461C50.0962 4.40767 50.6847 4.51847 51.2264 4.74007C51.7681 4.96167 52.2359 5.26944 52.6298 5.66339C53.0238 6.05242 53.3315 6.52023 53.5531 7.06684C53.7797 7.60852 53.8929 8.19944 53.8929 8.83961V10.5681ZM51.9724 8.83961C51.9724 8.46536 51.9109 8.12311 51.7877 7.81288C51.6696 7.50264 51.4997 7.23919 51.2781 7.02252C51.0565 6.80092 50.7906 6.63103 50.4803 6.51284C50.175 6.38973 49.8352 6.32818 49.461 6.32818H45.2285V13.0795H49.461C49.8352 13.0795 50.175 13.0204 50.4803 12.9022C50.7906 12.7791 51.0565 12.6092 51.2781 12.3925C51.4997 12.1709 51.6696 11.9075 51.7877 11.6022C51.9109 11.2919 51.9724 10.9472 51.9724 10.5681V8.83961ZM66.1694 15H64.2489V12.3999H57.4976V15H55.5771V9.70384C55.5771 8.93071 55.71 8.21914 55.9759 7.56912C56.2418 6.9191 56.6112 6.36019 57.0839 5.89237C57.5566 5.42456 58.1156 5.06015 58.7607 4.79916C59.4058 4.53817 60.1099 4.40767 60.8732 4.40767H65.2017C65.3347 4.40767 65.4603 4.4323 65.5785 4.48154C65.6966 4.53078 65.8 4.59973 65.8887 4.68836C65.9773 4.777 66.0463 4.88041 66.0955 4.9986C66.1448 5.11678 66.1694 5.24236 66.1694 5.37531V15ZM57.4976 10.4794H64.2489V6.32818H60.8732C60.8141 6.32818 60.6885 6.33803 60.4965 6.35773C60.3094 6.3725 60.0902 6.41436 59.8391 6.4833C59.5929 6.55224 59.3319 6.65811 59.0561 6.80092C58.7804 6.94373 58.5267 7.1407 58.2953 7.39184C58.0639 7.64299 57.8718 7.95815 57.7192 8.33732C57.5714 8.71158 57.4976 9.16708 57.4976 9.70384V10.4794ZM77.9805 6.32818H73.748V15H71.8275V6.32818H67.5876V4.40767H77.9805V6.32818ZM89.4223 15H87.5018V12.3999H80.7504V15H78.8299V9.70384C78.8299 8.93071 78.9629 8.21914 79.2288 7.56912C79.4947 6.9191 79.8641 6.36019 80.3368 5.89237C80.8095 5.42456 81.3685 5.06015 82.0135 4.79916C82.6586 4.53817 83.3628 4.40767 84.1261 4.40767H88.4546C88.5876 4.40767 88.7132 4.4323 88.8313 4.48154C88.9495 4.53078 89.0529 4.59973 89.1416 4.68836C89.2302 4.777 89.2992 4.88041 89.3484 4.9986C89.3976 5.11678 89.4223 5.24236 89.4223 5.37531V15ZM80.7504 10.4794H87.5018V6.32818H84.1261C84.067 6.32818 83.9414 6.33803 83.7494 6.35773C83.5623 6.3725 83.3431 6.41436 83.092 6.4833C82.8458 6.55224 82.5848 6.65811 82.309 6.80092C82.0332 6.94373 81.7796 7.1407 81.5482 7.39184C81.3168 7.64299 81.1247 7.95815 80.972 8.33732C80.8243 8.71158 80.7504 9.16708 80.7504 9.70384V10.4794ZM105.052 12.3039H104.188L104.173 12.3261C104.173 12.6412 104.131 12.9244 104.048 13.1755C103.969 13.4267 103.863 13.6483 103.73 13.8403C103.597 14.0274 103.442 14.1899 103.265 14.3278C103.087 14.4657 102.903 14.579 102.711 14.6676C102.524 14.7513 102.332 14.8129 102.135 14.8523C101.942 14.8917 101.76 14.9114 101.588 14.9114H98.9805C98.5225 14.9114 98.131 14.8252 97.806 14.6528C97.4859 14.4805 97.22 14.2663 97.0083 14.0102C96.8014 13.7541 96.6463 13.4759 96.5429 13.1755C96.4444 12.8751 96.3903 12.5969 96.3804 12.3408V11.4471C96.3804 11.058 96.4346 10.7232 96.5429 10.4425C96.6562 10.1569 96.8039 9.91066 96.9861 9.70384C96.7744 9.43792 96.6192 9.14985 96.5207 8.83961C96.4272 8.52937 96.3804 8.23884 96.3804 7.968C96.3804 7.49033 96.4666 7.08653 96.6389 6.7566C96.8113 6.42667 97.028 6.16075 97.2889 5.95885C97.5499 5.75203 97.8306 5.6043 98.131 5.51566C98.4363 5.4221 98.7195 5.37531 98.9805 5.37531H103.309V7.10377H98.9805C98.8475 7.10377 98.7269 7.12593 98.6185 7.17025C98.5151 7.20964 98.424 7.26874 98.3452 7.34753C98.2714 7.42632 98.2147 7.51988 98.1753 7.62821C98.1359 7.73163 98.1187 7.84489 98.1236 7.968C98.1236 8.24869 98.2024 8.46536 98.36 8.61801C98.5176 8.76574 98.7244 8.83961 98.9805 8.83961H101.588V10.5681H98.9805C98.7096 10.5681 98.4979 10.6518 98.3452 10.8192C98.1975 10.9866 98.1236 11.1959 98.1236 11.4471V12.2744C98.1236 12.5403 98.2024 12.7569 98.36 12.9244C98.5225 13.0869 98.7293 13.1681 98.9805 13.1681H101.573C101.844 13.1681 102.056 13.0869 102.208 12.9244C102.366 12.7619 102.445 12.555 102.445 12.3039C102.445 12.0922 102.482 11.8829 102.556 11.676C102.629 11.4692 102.74 11.2846 102.888 11.1221C103.036 10.9546 103.215 10.8217 103.427 10.7232C103.644 10.6198 103.893 10.5681 104.173 10.5681H105.052V12.3039ZM122.115 14.0324C122.115 14.1702 122.091 14.2983 122.041 14.4165C121.992 14.5346 121.923 14.6381 121.834 14.7267C121.751 14.8104 121.65 14.8769 121.532 14.9261C121.413 14.9754 121.285 15 121.148 15H114.219C114.042 15 113.85 14.9803 113.643 14.9409C113.441 14.8966 113.239 14.8301 113.037 14.7415C112.84 14.6528 112.651 14.5396 112.468 14.4017C112.286 14.2589 112.124 14.089 111.981 13.892C111.843 13.6901 111.732 13.4587 111.648 13.1977C111.565 12.9318 111.523 12.6338 111.523 12.3039V7.10377C111.523 6.92649 111.543 6.7369 111.582 6.535C111.626 6.32818 111.693 6.12628 111.781 5.92931C111.87 5.72741 111.986 5.53536 112.129 5.35315C112.271 5.17095 112.441 5.01091 112.638 4.87303C112.84 4.73022 113.072 4.61696 113.333 4.53325C113.594 4.44953 113.889 4.40767 114.219 4.40767H122.027V6.32818H114.219C113.968 6.32818 113.776 6.39466 113.643 6.52762C113.51 6.66058 113.443 6.85755 113.443 7.11854V12.3039C113.443 12.5501 113.51 12.7422 113.643 12.8801C113.781 13.013 113.973 13.0795 114.219 13.0795H120.195V10.6715H115.083V8.7362H121.148C121.285 8.7362 121.413 8.76328 121.532 8.81745C121.65 8.86669 121.751 8.93564 121.834 9.02427C121.923 9.11291 121.992 9.21632 122.041 9.33451C122.091 9.44777 122.115 9.57088 122.115 9.70384V14.0324ZM132.826 10.6715H126.761V8.7362H132.826V10.6715ZM133.69 15H126.761C126.495 15 126.205 14.9532 125.89 14.8597C125.575 14.7661 125.282 14.6134 125.011 14.4017C124.745 14.185 124.521 13.9068 124.339 13.567C124.161 13.2223 124.073 12.8013 124.073 12.3039V5.37531C124.073 5.24236 124.097 5.11678 124.146 4.9986C124.196 4.88041 124.262 4.777 124.346 4.68836C124.435 4.59973 124.538 4.53078 124.656 4.48154C124.774 4.4323 124.902 4.40767 125.04 4.40767H133.69V6.32818H125.993V12.3039C125.993 12.555 126.06 12.7471 126.193 12.8801C126.326 13.013 126.52 13.0795 126.776 13.0795H133.69V15ZM146.136 14.1801C146.136 14.318 146.109 14.446 146.055 14.5642C146.006 14.6824 145.937 14.7858 145.848 14.8744C145.764 14.9581 145.664 15.0246 145.545 15.0739C145.427 15.1231 145.302 15.1477 145.169 15.1477C145.05 15.1477 144.93 15.1256 144.807 15.0813C144.688 15.0369 144.583 14.9655 144.489 14.867L137.472 7.53958V15H135.551V5.22758C135.551 5.03061 135.605 4.85333 135.714 4.69575C135.827 4.53325 135.97 4.4126 136.142 4.33381C136.324 4.25994 136.512 4.24271 136.704 4.2821C136.896 4.31657 137.061 4.40521 137.199 4.54802L144.216 11.8681V4.40767H146.136V14.1801ZM163.687 15H161.766V12.3999H155.015V15H153.094V9.70384C153.094 8.93071 153.227 8.21914 153.493 7.56912C153.759 6.9191 154.129 6.36019 154.601 5.89237C155.074 5.42456 155.633 5.06015 156.278 4.79916C156.923 4.53817 157.627 4.40767 158.391 4.40767H162.719C162.852 4.40767 162.978 4.4323 163.096 4.48154C163.214 4.53078 163.317 4.59973 163.406 4.68836C163.495 4.777 163.564 4.88041 163.613 4.9986C163.662 5.11678 163.687 5.24236 163.687 5.37531V15ZM155.015 10.4794H161.766V6.32818H158.391C158.331 6.32818 158.206 6.33803 158.014 6.35773C157.827 6.3725 157.608 6.41436 157.356 6.4833C157.11 6.55224 156.849 6.65811 156.573 6.80092C156.298 6.94373 156.044 7.1407 155.813 7.39184C155.581 7.64299 155.389 7.95815 155.237 8.33732C155.089 8.71158 155.015 9.16708 155.015 9.70384V10.4794ZM167.86 15H165.94V4.40767H167.86V15ZM50.1627 33.1801C50.1627 33.318 50.1356 33.446 50.0815 33.5642C50.0322 33.6824 49.9633 33.7858 49.8746 33.8744C49.7909 33.9581 49.69 34.0246 49.5718 34.0739C49.4536 34.1231 49.328 34.1477 49.1951 34.1477C49.0769 34.1477 48.9562 34.1256 48.8331 34.0813C48.7149 34.0369 48.6091 33.9655 48.5155 33.867L41.4983 26.5396V34H39.5778V24.2276C39.5778 24.0306 39.6319 23.8533 39.7403 23.6958C39.8535 23.5332 39.9963 23.4126 40.1687 23.3338C40.3509 23.2599 40.538 23.2427 40.7301 23.2821C40.9221 23.3166 41.0871 23.4052 41.225 23.548L48.2422 30.8681V23.4077H50.1627V33.1801ZM61.1096 29.6715H55.0452V27.7362H61.1096V29.6715ZM61.9738 34H55.0452C54.7793 34 54.4888 33.9532 54.1736 33.8597C53.8584 33.7661 53.5654 33.6134 53.2946 33.4017C53.0287 33.185 52.8046 32.9068 52.6224 32.567C52.4452 32.2223 52.3565 31.8013 52.3565 31.3039V24.3753C52.3565 24.2424 52.3811 24.1168 52.4304 23.9986C52.4796 23.8804 52.5461 23.777 52.6298 23.6884C52.7185 23.5997 52.8219 23.5308 52.9401 23.4815C53.0582 23.4323 53.1863 23.4077 53.3242 23.4077H61.9738V25.3282H54.277V31.3039C54.277 31.555 54.3435 31.7471 54.4765 31.8801C54.6094 32.013 54.8039 32.0795 55.06 32.0795H61.9738V34ZM68.6734 27.1896L71.9087 23.4077H74.531L69.9735 28.7186L74.5014 34H71.894L68.6734 30.2476L65.4677 34H62.8528L67.3734 28.7186L62.838 23.4077H65.4381L68.6734 27.1896ZM86.1205 33.0324C86.1205 33.1702 86.0958 33.2983 86.0466 33.4165C85.9974 33.5346 85.9284 33.6381 85.8398 33.7267C85.7511 33.8104 85.6477 33.8769 85.5295 33.9261C85.4114 33.9754 85.2858 34 85.1528 34H80.8243C80.4156 34 80.0019 33.9557 79.5834 33.867C79.1648 33.7784 78.7585 33.643 78.3646 33.4608C77.9756 33.2737 77.6087 33.0373 77.264 32.7517C76.9193 32.4661 76.6164 32.1287 76.3554 31.7397C76.0994 31.3458 75.8975 30.8976 75.7497 30.3954C75.602 29.8881 75.5281 29.3243 75.5281 28.7038V23.4077H77.4486V28.7038C77.4486 29.2455 77.5225 29.7035 77.6702 30.0777C77.8229 30.452 78.015 30.7647 78.2464 31.0158C78.4778 31.267 78.7314 31.4639 79.0072 31.6068C79.283 31.7496 79.544 31.8554 79.7902 31.9244C80.0413 31.9933 80.2605 32.0376 80.4476 32.0573C80.6396 32.0721 80.7652 32.0795 80.8243 32.0795H84.2V23.4077H86.1205V33.0324ZM98.5373 30.8829C98.5373 31.262 98.488 31.6043 98.3895 31.9096C98.296 32.21 98.1704 32.4759 98.0128 32.7074C97.8552 32.9388 97.6706 33.1358 97.4588 33.2983C97.2471 33.4608 97.028 33.5937 96.8014 33.6972C96.5749 33.8006 96.3435 33.8769 96.1071 33.9261C95.8757 33.9754 95.6565 34 95.4497 34H88.041V32.0795H95.4497C95.819 32.0795 96.1046 31.9712 96.3065 31.7545C96.5134 31.5378 96.6168 31.2473 96.6168 30.8829C96.6168 30.7056 96.5897 30.5431 96.5355 30.3954C96.4813 30.2476 96.4026 30.1196 96.2991 30.0113C96.2007 29.9029 96.0775 29.8192 95.9298 29.7601C95.787 29.701 95.627 29.6715 95.4497 29.6715H91.0325C90.7223 29.6715 90.3874 29.6173 90.028 29.509C89.6685 29.3957 89.3336 29.216 89.0234 28.9698C88.7181 28.7235 88.462 28.401 88.2552 28.0021C88.0533 27.6032 87.9523 27.1157 87.9523 26.5396C87.9523 25.9634 88.0533 25.4784 88.2552 25.0844C88.462 24.6855 88.7181 24.363 89.0234 24.1168C89.3336 23.8656 89.6685 23.6859 90.028 23.5776C90.3874 23.4643 90.7223 23.4077 91.0325 23.4077H97.5696V25.3282H91.0325C90.6681 25.3282 90.3825 25.439 90.1757 25.6606C89.9738 25.8822 89.8728 26.1752 89.8728 26.5396C89.8728 26.9089 89.9738 27.2019 90.1757 27.4186C90.3825 27.6303 90.6681 27.7362 91.0325 27.7362H95.4497H95.4645C95.6713 27.7411 95.8904 27.7707 96.1219 27.8248C96.3533 27.8741 96.5823 27.9529 96.8088 28.0612C97.0403 28.1695 97.2594 28.3074 97.4662 28.4749C97.673 28.6374 97.8552 28.8343 98.0128 29.0658C98.1753 29.2972 98.3034 29.5631 98.3969 29.8635C98.4905 30.1639 98.5373 30.5037 98.5373 30.8829ZM114.389 34H112.454V29.6715H105.628C105.49 29.6715 105.362 29.6469 105.244 29.5976C105.126 29.5434 105.023 29.4745 104.934 29.3908C104.85 29.3021 104.784 29.1987 104.735 29.0806C104.685 28.9624 104.661 28.8368 104.661 28.7038V23.4077H106.581V27.7362H112.454V23.4077H114.389V34ZM118.067 33.0324C118.067 33.1653 118.04 33.2909 117.986 33.4091C117.937 33.5223 117.868 33.6233 117.779 33.7119C117.696 33.7956 117.595 33.8621 117.476 33.9114C117.363 33.9606 117.243 33.9852 117.114 33.9852C116.982 33.9852 116.856 33.9606 116.738 33.9114C116.624 33.8621 116.524 33.7956 116.435 33.7119C116.351 33.6233 116.285 33.5223 116.235 33.4091C116.186 33.2909 116.162 33.1653 116.162 33.0324C116.162 32.9043 116.186 32.7837 116.235 32.6704C116.285 32.5522 116.351 32.4513 116.435 32.3676C116.524 32.2789 116.624 32.21 116.738 32.1607C116.856 32.1066 116.982 32.0795 117.114 32.0795C117.243 32.0795 117.363 32.1066 117.476 32.1607C117.595 32.21 117.696 32.2789 117.779 32.3676C117.868 32.4513 117.937 32.5522 117.986 32.6704C118.04 32.7837 118.067 32.9043 118.067 33.0324ZM131.703 29.5681C131.703 30.0014 131.646 30.4126 131.533 30.8016C131.425 31.1857 131.27 31.5427 131.068 31.8727C130.866 32.2026 130.627 32.4981 130.351 32.7591C130.075 33.02 129.773 33.2441 129.443 33.4312C129.118 33.6134 128.77 33.7538 128.401 33.8523C128.032 33.9508 127.655 34 127.271 34H123.807C123.418 34 123.038 33.9508 122.669 33.8523C122.3 33.7538 121.95 33.6134 121.62 33.4312C121.295 33.2441 120.995 33.02 120.719 32.7591C120.443 32.4981 120.205 32.2026 120.003 31.8727C119.806 31.5427 119.651 31.1857 119.537 30.8016C119.429 30.4126 119.375 30.0014 119.375 29.5681V27.8396C119.375 27.1896 119.495 26.5937 119.737 26.0521C119.983 25.5104 120.31 25.045 120.719 24.656C121.128 24.2621 121.598 23.9567 122.13 23.7401C122.667 23.5185 123.226 23.4077 123.807 23.4077H127.271C127.655 23.4077 128.032 23.4569 128.401 23.5554C128.77 23.6539 129.118 23.7967 129.443 23.9838C129.773 24.166 130.075 24.3876 130.351 24.6486C130.627 24.9096 130.866 25.2051 131.068 25.535C131.27 25.8649 131.425 26.2244 131.533 26.6134C131.646 26.9975 131.703 27.4063 131.703 27.8396V29.5681ZM129.768 27.8396C129.768 27.4604 129.699 27.1157 129.561 26.8055C129.423 26.4953 129.238 26.2293 129.007 26.0077C128.78 25.7861 128.517 25.6163 128.216 25.4981C127.916 25.3799 127.601 25.3233 127.271 25.3282H123.807C123.487 25.3233 123.174 25.3799 122.869 25.4981C122.568 25.6113 122.3 25.7788 122.063 26.0004C121.832 26.217 121.645 26.4829 121.502 26.7981C121.364 27.1083 121.295 27.4555 121.295 27.8396V29.5681C121.295 29.9522 121.364 30.2993 121.502 30.6096C121.64 30.9198 121.825 31.1857 122.056 31.4073C122.288 31.624 122.553 31.7914 122.854 31.9096C123.159 32.0278 123.477 32.0844 123.807 32.0795H127.271C127.65 32.0795 127.992 32.0179 128.298 31.8948C128.608 31.7668 128.871 31.592 129.088 31.3704C129.305 31.1488 129.472 30.8853 129.59 30.58C129.709 30.2698 129.768 29.9325 129.768 29.5681V27.8396ZM128.933 26.4362C129.007 26.5445 129.056 26.6627 129.081 26.7907C129.105 26.9138 129.105 27.0369 129.081 27.16C129.056 27.2782 129.007 27.3915 128.933 27.4998C128.864 27.6032 128.773 27.6919 128.66 27.7657L123.474 31.23C123.391 31.2941 123.304 31.3384 123.216 31.363C123.127 31.3876 123.036 31.3999 122.942 31.3999C122.785 31.3999 122.635 31.363 122.492 31.2891C122.349 31.2153 122.233 31.1094 122.145 30.9715C122.071 30.8632 122.022 30.7475 121.997 30.6243C121.972 30.4963 121.97 30.3732 121.99 30.255C122.014 30.1319 122.061 30.0186 122.13 29.9152C122.199 29.8069 122.29 29.7158 122.403 29.6419L127.603 26.1776C127.712 26.1038 127.827 26.0545 127.951 26.0299C128.079 26.0053 128.202 26.0053 128.32 26.0299C128.443 26.0545 128.556 26.1013 128.66 26.1702C128.768 26.2392 128.859 26.3278 128.933 26.4362Z" fill="#202124"/>
<line y1="-0.159521" x2="121.236" y2="-0.159521" transform="matrix(-1 0 0 1 139.512 40.666)" stroke="#202124" stroke-width="0.319041"/>
<path d="M24.3454 46.4023L23.0967 50.6152H22.3147L21.4297 47.4267L20.4901 50.6152L19.7142 50.6213L18.52 46.4023H19.2535L20.1264 49.8333L21.072 46.4023H21.8479L22.7269 49.8151L23.6059 46.4023H24.3454ZM28.8858 46.4023V50.6152H28.1948V48.7725H26.2126V50.6152H25.5215V46.4023H26.2126V48.2087H28.1948V46.4023H28.8858ZM31.0928 46.96V48.1966H32.5476V48.7603H31.0928V50.0515H32.7295V50.6152H30.4017V46.3962H32.7295V46.96H31.0928ZM36.3751 50.6152L35.4052 48.9301H34.8778V50.6152H34.1868V46.4023H35.6416C35.9649 46.4023 36.2377 46.4589 36.46 46.572C36.6863 46.6852 36.854 46.8367 36.9631 47.0267C37.0762 47.2166 37.1328 47.4288 37.1328 47.6631C37.1328 47.9379 37.052 48.1885 36.8903 48.4148C36.7327 48.6371 36.4882 48.7886 36.1569 48.8694L37.1995 50.6152H36.3751ZM34.8778 48.3784H35.6416C35.9003 48.3784 36.0942 48.3138 36.2235 48.1845C36.3569 48.0551 36.4236 47.8814 36.4236 47.6631C36.4236 47.4449 36.3589 47.2752 36.2296 47.154C36.1003 47.0287 35.9043 46.966 35.6416 46.966H34.8778V48.3784ZM39.3141 46.96V48.1966H40.7689V48.7603H39.3141V50.0515H40.9507V50.6152H38.623V46.3962H40.9507V46.96H39.3141ZM45.9649 46.4023C46.4135 46.4023 46.8055 46.4892 47.1409 46.663C47.4804 46.8327 47.741 47.0792 47.9229 47.4025C48.1088 47.7217 48.2017 48.0956 48.2017 48.5239C48.2017 48.9523 48.1088 49.3241 47.9229 49.6393C47.741 49.9545 47.4804 50.197 47.1409 50.3667C46.8055 50.5324 46.4135 50.6152 45.9649 50.6152H44.5889V46.4023H45.9649ZM45.9649 50.0515C46.458 50.0515 46.8358 49.9181 47.0985 49.6514C47.3612 49.3847 47.4925 49.0089 47.4925 48.5239C47.4925 48.0349 47.3612 47.653 47.0985 47.3782C46.8358 47.1034 46.458 46.966 45.9649 46.966H45.2799V50.0515H45.9649ZM52.0327 49.7545H50.2687L49.9656 50.6152H49.2443L50.7536 46.3962H51.5538L53.0632 50.6152H52.3358L52.0327 49.7545ZM51.8387 49.1907L51.1537 47.2328L50.4627 49.1907H51.8387ZM57.0474 46.4023V46.966H55.926V50.6152H55.2349V46.966H54.1074V46.4023H57.0474ZM60.8933 49.7545H59.1293L58.8262 50.6152H58.1049L59.6143 46.3962H60.4144L61.9238 50.6152H61.1964L60.8933 49.7545ZM60.6993 49.1907L60.0143 47.2328L59.3233 49.1907H60.6993ZM67.907 49.7545H66.143L65.8399 50.6152H65.1186L66.6279 46.3962H67.4281L68.9375 50.6152H68.2101L67.907 49.7545ZM67.713 49.1907L67.028 47.2328L66.337 49.1907H67.713ZM73.6612 50.6152H72.9702L70.891 47.4692V50.6152H70.1999V46.3962H70.891L72.9702 49.5362V46.3962H73.6612V50.6152ZM76.5509 46.4023C76.9995 46.4023 77.3915 46.4892 77.7269 46.663C78.0663 46.8327 78.327 47.0792 78.5088 47.4025C78.6947 47.7217 78.7877 48.0956 78.7877 48.5239C78.7877 48.9523 78.6947 49.3241 78.5088 49.6393C78.327 49.9545 78.0663 50.197 77.7269 50.3667C77.3915 50.5324 76.9995 50.6152 76.5509 50.6152H75.1749V46.4023H76.5509ZM76.5509 50.0515C77.0439 50.0515 77.4218 49.9181 77.6844 49.6514C77.9471 49.3847 78.0785 49.0089 78.0785 48.5239C78.0785 48.0349 77.9471 47.653 77.6844 47.3782C77.4218 47.1034 77.0439 46.966 76.5509 46.966H75.8659V50.0515H76.5509ZM85.3087 47.6147C85.1995 47.4045 85.048 47.2469 84.854 47.1418C84.66 47.0327 84.4358 46.9782 84.1812 46.9782C83.9023 46.9782 83.6538 47.0408 83.4356 47.1661C83.2173 47.2914 83.0456 47.4692 82.9203 47.6995C82.7991 47.9299 82.7385 48.1966 82.7385 48.4997C82.7385 48.8028 82.7991 49.0715 82.9203 49.3059C83.0456 49.5362 83.2173 49.714 83.4356 49.8393C83.6538 49.9646 83.9023 50.0272 84.1812 50.0272C84.557 50.0272 84.8621 49.9222 85.0965 49.712C85.3309 49.5019 85.4743 49.217 85.5269 48.8573H83.9447V48.3057H86.2664V48.8452C86.222 49.1725 86.1048 49.4736 85.9148 49.7484C85.7289 50.0232 85.4844 50.2434 85.1814 50.4091C84.8823 50.5708 84.5489 50.6516 84.1812 50.6516C83.7851 50.6516 83.4234 50.5607 83.0961 50.3788C82.7688 50.1929 82.5081 49.9363 82.3141 49.609C82.1242 49.2816 82.0292 48.9119 82.0292 48.4997C82.0292 48.0875 82.1242 47.7177 82.3141 47.3904C82.5081 47.063 82.7688 46.8084 83.0961 46.6266C83.4275 46.4407 83.7892 46.3477 84.1812 46.3477C84.6297 46.3477 85.0278 46.4589 85.3753 46.6811C85.7269 46.8994 85.9815 47.2105 86.1391 47.6147H85.3087ZM88.2452 46.96V48.1966H89.7V48.7603H88.2452V50.0515H89.8819V50.6152H87.5542V46.3962H89.8819V46.96H88.2452ZM94.8005 50.6152H94.1095L92.0303 47.4692V50.6152H91.3392V46.3962H92.0303L94.1095 49.5362V46.3962H94.8005V50.6152ZM101.035 49.7545H99.2709L98.9678 50.6152H98.2464L99.7558 46.3962H100.556L102.065 50.6152H101.338L101.035 49.7545ZM100.841 49.1907L100.156 47.2328L99.4649 49.1907H100.841ZM104.019 46.4023V50.6152H103.328V46.4023H104.019ZM107.483 48.4997C107.483 48.0875 107.578 47.7177 107.768 47.3904C107.962 47.063 108.222 46.8084 108.55 46.6266C108.881 46.4407 109.243 46.3477 109.635 46.3477C110.083 46.3477 110.481 46.4589 110.829 46.6811C111.18 46.8994 111.435 47.2105 111.593 47.6147H110.762C110.653 47.3924 110.502 47.2267 110.308 47.1176C110.114 47.0085 109.889 46.9539 109.635 46.9539C109.356 46.9539 109.107 47.0166 108.889 47.1418C108.671 47.2671 108.499 47.4469 108.374 47.6813C108.253 47.9157 108.192 48.1885 108.192 48.4997C108.192 48.8108 108.253 49.0836 108.374 49.318C108.499 49.5524 108.671 49.7343 108.889 49.8636C109.107 49.9889 109.356 50.0515 109.635 50.0515C109.889 50.0515 110.114 49.9969 110.308 49.8878C110.502 49.7787 110.653 49.613 110.762 49.3908H111.593C111.435 49.7949 111.18 50.106 110.829 50.3243C110.481 50.5425 110.083 50.6516 109.635 50.6516C109.239 50.6516 108.877 50.5607 108.55 50.3788C108.222 50.1929 107.962 49.9363 107.768 49.609C107.578 49.2816 107.483 48.9119 107.483 48.4997ZM114.929 50.6577C114.537 50.6577 114.176 50.5667 113.844 50.3849C113.517 50.199 113.256 49.9424 113.062 49.615C112.872 49.2837 112.777 48.9119 112.777 48.4997C112.777 48.0875 112.872 47.7177 113.062 47.3904C113.256 47.063 113.517 46.8084 113.844 46.6266C114.176 46.4407 114.537 46.3477 114.929 46.3477C115.325 46.3477 115.687 46.4407 116.014 46.6266C116.346 46.8084 116.606 47.063 116.796 47.3904C116.986 47.7177 117.081 48.0875 117.081 48.4997C117.081 48.9119 116.986 49.2837 116.796 49.615C116.606 49.9424 116.346 50.199 116.014 50.3849C115.687 50.5667 115.325 50.6577 114.929 50.6577ZM114.929 50.0576C115.208 50.0576 115.457 49.9949 115.675 49.8696C115.893 49.7403 116.063 49.5585 116.184 49.3241C116.309 49.0856 116.372 48.8108 116.372 48.4997C116.372 48.1885 116.309 47.9157 116.184 47.6813C116.063 47.4469 115.893 47.2671 115.675 47.1418C115.457 47.0166 115.208 46.9539 114.929 46.9539C114.65 46.9539 114.402 47.0166 114.184 47.1418C113.965 47.2671 113.794 47.4469 113.668 47.6813C113.547 47.9157 113.487 48.1885 113.487 48.4997C113.487 48.8108 113.547 49.0856 113.668 49.3241C113.794 49.5585 113.965 49.7403 114.184 49.8696C114.402 49.9949 114.65 50.0576 114.929 50.0576ZM119.058 50.0576H120.483V50.6152H118.367V46.4023H119.058V50.0576ZM122.358 50.0576H123.783V50.6152H121.667V46.4023H122.358V50.0576ZM125.658 46.4023V50.6152H124.967V46.4023H125.658ZM128.547 46.4023C128.996 46.4023 129.388 46.4892 129.723 46.663C130.063 46.8327 130.323 47.0792 130.505 47.4025C130.691 47.7217 130.784 48.0956 130.784 48.5239C130.784 48.9523 130.691 49.3241 130.505 49.6393C130.323 49.9545 130.063 50.197 129.723 50.3667C129.388 50.5324 128.996 50.6152 128.547 50.6152H127.171V46.4023H128.547ZM128.547 50.0515C129.04 50.0515 129.418 49.9181 129.681 49.6514C129.943 49.3847 130.075 49.0089 130.075 48.5239C130.075 48.0349 129.943 47.653 129.681 47.3782C129.418 47.1034 129.04 46.966 128.547 46.966H127.862V50.0515H128.547ZM132.766 46.96V48.1966H134.221V48.7603H132.766V50.0515H134.403V50.6152H132.075V46.3962H134.403V46.96H132.766ZM137.248 50.6577C136.965 50.6577 136.711 50.6092 136.485 50.5122C136.258 50.4112 136.08 50.2697 135.951 50.0879C135.822 49.906 135.757 49.6938 135.757 49.4514H136.497C136.513 49.6332 136.584 49.7827 136.709 49.8999C136.838 50.0171 137.018 50.0757 137.248 50.0757C137.487 50.0757 137.673 50.0192 137.806 49.906C137.939 49.7888 138.006 49.6393 138.006 49.4574C138.006 49.316 137.964 49.2008 137.879 49.1119C137.798 49.023 137.695 48.9543 137.57 48.9058C137.448 48.8573 137.279 48.8048 137.06 48.7482C136.786 48.6755 136.561 48.6027 136.388 48.53C136.218 48.4532 136.072 48.336 135.951 48.1784C135.83 48.0208 135.769 47.8106 135.769 47.548C135.769 47.3055 135.83 47.0933 135.951 46.9115C136.072 46.7296 136.242 46.5902 136.46 46.4932C136.679 46.3962 136.931 46.3477 137.218 46.3477C137.626 46.3477 137.96 46.4508 138.218 46.6569C138.481 46.8589 138.626 47.1378 138.655 47.4934H137.891C137.879 47.3399 137.806 47.2085 137.673 47.0994C137.539 46.9903 137.364 46.9357 137.145 46.9357C136.947 46.9357 136.786 46.9862 136.66 47.0873C136.535 47.1883 136.472 47.3338 136.472 47.5237C136.472 47.653 136.511 47.7601 136.588 47.845C136.668 47.9258 136.769 47.9905 136.891 48.039C137.012 48.0875 137.178 48.14 137.388 48.1966C137.667 48.2734 137.893 48.3501 138.067 48.4269C138.244 48.5037 138.394 48.6229 138.515 48.7846C138.641 48.9422 138.703 49.1543 138.703 49.4211C138.703 49.6352 138.645 49.8373 138.527 50.0272C138.414 50.2172 138.247 50.3707 138.024 50.4879C137.806 50.6011 137.547 50.6577 137.248 50.6577Z" fill="#202124"/>
</svg>
