<svg width="160" height="59" viewBox="0 0 160 59" fill="none" xmlns="http://www.w3.org/2000/svg">
<path d="M12.5014 50.5058H13.3257L11.6858 56.6533H10.8787L9.55647 52.6008H9.52213L8.19991 56.6533H7.39283L5.68425 50.5058H6.50849L7.80496 55.3397H7.8393L9.17011 51.3301H9.90849L11.2393 55.3397H11.2736L12.5014 50.5058ZM13.9428 50.5058H14.7327V52.4463L14.6983 53.0301H14.7327C14.8529 52.824 15.036 52.6523 15.2822 52.5149C15.534 52.3776 15.7945 52.3089 16.0635 52.3089C16.5786 52.3089 16.9736 52.4577 17.2483 52.7553C17.5288 53.0473 17.669 53.4651 17.669 54.0089V56.6533H16.8791V54.1634C16.8791 53.4079 16.5443 53.0301 15.8746 53.0301C15.554 53.0301 15.2822 53.1646 15.0589 53.4336C14.8414 53.6969 14.7327 54.006 14.7327 54.3609V56.6533H13.9428V50.5058ZM20.4851 56.7907C19.8669 56.7907 19.3575 56.5789 18.9568 56.1553C18.5562 55.7318 18.3558 55.1966 18.3558 54.5498C18.3558 53.9087 18.5504 53.3764 18.9397 52.9528C19.3289 52.5235 19.8269 52.3089 20.4336 52.3089C21.0575 52.3089 21.5526 52.5121 21.919 52.9185C22.291 53.3191 22.477 53.883 22.477 54.6099L22.4685 54.6957H19.1629C19.1744 55.1079 19.3117 55.4399 19.575 55.6917C19.8383 55.9436 20.1531 56.0695 20.5195 56.0695C21.0232 56.0695 21.4181 55.8176 21.7043 55.3139L22.4084 55.6574C22.2195 56.0122 21.9562 56.2899 21.6185 56.4902C21.2865 56.6905 20.9087 56.7907 20.4851 56.7907ZM19.223 54.0432H21.6356C21.6127 53.7513 21.4925 53.5109 21.275 53.322C21.0632 53.1274 20.777 53.0301 20.4164 53.0301C20.1188 53.0301 19.8612 53.1217 19.6437 53.3048C19.4319 53.488 19.2917 53.7341 19.223 54.0432ZM23.9893 56.6533H23.1994V52.4463H23.955V53.1331H23.9893C24.0694 52.9099 24.2326 52.721 24.4787 52.5665C24.7305 52.4062 24.9767 52.326 25.2171 52.326C25.446 52.326 25.6406 52.3604 25.8009 52.4291L25.5605 53.1932C25.4632 53.1532 25.3087 53.1331 25.0969 53.1331C24.7992 53.1331 24.5388 53.2533 24.3156 53.4937C24.0981 53.7341 23.9893 54.0146 23.9893 54.3351V56.6533ZM27.9474 56.7907C27.3293 56.7907 26.8198 56.5789 26.4192 56.1553C26.0185 55.7318 25.8182 55.1966 25.8182 54.5498C25.8182 53.9087 26.0128 53.3764 26.402 52.9528C26.7912 52.5235 27.2892 52.3089 27.8959 52.3089C28.5198 52.3089 29.015 52.5121 29.3813 52.9185C29.7533 53.3191 29.9394 53.883 29.9394 54.6099L29.9308 54.6957H26.6252C26.6367 55.1079 26.774 55.4399 27.0373 55.6917C27.3006 55.9436 27.6155 56.0695 27.9818 56.0695C28.4855 56.0695 28.8804 55.8176 29.1666 55.3139L29.8707 55.6574C29.6818 56.0122 29.4185 56.2899 29.0808 56.4902C28.7488 56.6905 28.371 56.7907 27.9474 56.7907ZM26.6853 54.0432H29.0979C29.0751 53.7513 28.9549 53.5109 28.7373 53.322C28.5256 53.1274 28.2394 53.0301 27.8788 53.0301C27.5811 53.0301 27.3235 53.1217 27.106 53.3048C26.8942 53.488 26.754 53.7341 26.6853 54.0432ZM32.6856 56.6533V50.5058H34.5659C35.5047 50.5058 36.2573 50.7892 36.824 51.3558C37.3964 51.9225 37.6826 52.6638 37.6826 53.5796C37.6826 54.5011 37.3964 55.2452 36.824 55.8119C36.2573 56.3728 35.5047 56.6533 34.5659 56.6533H32.6856ZM33.4755 51.2614V55.8978H34.5659C35.2814 55.8978 35.8452 55.6946 36.2573 55.2882C36.6695 54.876 36.8755 54.3065 36.8755 53.5796C36.8755 52.8584 36.6695 52.2917 36.2573 51.8796C35.8452 51.4675 35.2814 51.2614 34.5659 51.2614H33.4755ZM39.0598 55.3654C39.0598 55.5715 39.1457 55.7432 39.3174 55.8806C39.4948 56.018 39.7009 56.0867 39.9356 56.0867C40.2676 56.0867 40.5624 55.9636 40.8199 55.7175C41.0832 55.4713 41.2149 55.1823 41.2149 54.8503C40.9687 54.6557 40.6253 54.5584 40.1846 54.5584C39.864 54.5584 39.595 54.6356 39.3775 54.7902C39.1657 54.9447 39.0598 55.1365 39.0598 55.3654ZM40.0815 52.3089C40.6654 52.3089 41.1262 52.4663 41.4639 52.7811C41.8016 53.0902 41.9704 53.5166 41.9704 54.0604V56.6533H41.2149V56.0695H41.1805C40.8543 56.5503 40.4193 56.7907 39.8755 56.7907C39.4118 56.7907 39.0226 56.6533 38.7078 56.3786C38.3987 56.1038 38.2442 55.7604 38.2442 55.3483C38.2442 54.9133 38.4073 54.567 38.7336 54.3094C39.0655 54.0518 39.5063 53.923 40.0558 53.923C40.5251 53.923 40.9115 54.0089 41.2149 54.1806V54.0003C41.2149 53.7255 41.1061 53.4937 40.8886 53.3048C40.6711 53.1102 40.4164 53.0129 40.1245 53.0129C39.6837 53.0129 39.3346 53.1989 39.077 53.571L38.3815 53.1331C38.765 52.5836 39.3317 52.3089 40.0815 52.3089ZM44.4432 56.722C44.0997 56.722 43.8135 56.6161 43.5846 56.4043C43.3613 56.1925 43.2469 55.8978 43.2411 55.52V53.1675H42.5028V52.4463H43.2411V51.1584H44.031V52.4463H45.0613V53.1675H44.031V55.2624C44.031 55.5429 44.0854 55.7346 44.1942 55.8377C44.3029 55.935 44.426 55.9836 44.5634 55.9836C44.6263 55.9836 44.6864 55.9779 44.7437 55.9665C44.8066 55.9493 44.8639 55.9292 44.9154 55.9064L45.1644 56.6104C44.9583 56.6848 44.7179 56.722 44.4432 56.722ZM46.3041 55.3654C46.3041 55.5715 46.39 55.7432 46.5617 55.8806C46.7392 56.018 46.9452 56.0867 47.1799 56.0867C47.5119 56.0867 47.8067 55.9636 48.0642 55.7175C48.3275 55.4713 48.4592 55.1823 48.4592 54.8503C48.2131 54.6557 47.8696 54.5584 47.4289 54.5584C47.1084 54.5584 46.8393 54.6356 46.6218 54.7902C46.41 54.9447 46.3041 55.1365 46.3041 55.3654ZM47.3259 52.3089C47.9097 52.3089 48.3705 52.4663 48.7082 52.7811C49.0459 53.0902 49.2147 53.5166 49.2147 54.0604V56.6533H48.4592V56.0695H48.4248C48.0986 56.5503 47.6636 56.7907 47.1198 56.7907C46.6562 56.7907 46.2669 56.6533 45.9521 56.3786C45.643 56.1038 45.4885 55.7604 45.4885 55.3483C45.4885 54.9133 45.6516 54.567 45.9779 54.3094C46.3099 54.0518 46.7506 53.923 47.3001 53.923C47.7695 53.923 48.1558 54.0089 48.4592 54.1806V54.0003C48.4592 53.7255 48.3504 53.4937 48.1329 53.3048C47.9154 53.1102 47.6607 53.0129 47.3688 53.0129C46.928 53.0129 46.5789 53.1989 46.3213 53.571L45.6259 53.1331C46.0094 52.5836 46.576 52.3089 47.3259 52.3089ZM52.5675 55.3654C52.5675 55.5715 52.6533 55.7432 52.825 55.8806C53.0025 56.018 53.2085 56.0867 53.4432 56.0867C53.7752 56.0867 54.07 55.9636 54.3276 55.7175C54.5909 55.4713 54.7225 55.1823 54.7225 54.8503C54.4764 54.6557 54.1329 54.5584 53.6922 54.5584C53.3717 54.5584 53.1026 54.6356 52.8851 54.7902C52.6734 54.9447 52.5675 55.1365 52.5675 55.3654ZM53.5892 52.3089C54.173 52.3089 54.6338 52.4663 54.9715 52.7811C55.3092 53.0902 55.4781 53.5166 55.4781 54.0604V56.6533H54.7225V56.0695H54.6882C54.3619 56.5503 53.9269 56.7907 53.3831 56.7907C52.9195 56.7907 52.5303 56.6533 52.2154 56.3786C51.9063 56.1038 51.7518 55.7604 51.7518 55.3483C51.7518 54.9133 51.9149 54.567 52.2412 54.3094C52.5732 54.0518 53.0139 53.923 53.5634 53.923C54.0328 53.923 54.4191 54.0089 54.7225 54.1806V54.0003C54.7225 53.7255 54.6138 53.4937 54.3962 53.3048C54.1787 53.1102 53.924 53.0129 53.6321 53.0129C53.1914 53.0129 52.8422 53.1989 52.5846 53.571L51.8892 53.1331C52.2727 52.5836 52.8393 52.3089 53.5892 52.3089ZM56.369 52.4463H57.1245V53.0301H57.1589C57.2791 52.824 57.4622 52.6523 57.7084 52.5149C57.9602 52.3776 58.2207 52.3089 58.4897 52.3089C59.0048 52.3089 59.3998 52.4577 59.6745 52.7553C59.955 53.0473 60.0952 53.4651 60.0952 54.0089V56.6533H59.3053V54.0604C59.2882 53.3735 58.9419 53.0301 58.2665 53.0301C57.9516 53.0301 57.6883 53.1589 57.4766 53.4165C57.2648 53.6683 57.1589 53.9717 57.1589 54.3266V56.6533H56.369V52.4463ZM62.9113 56.0695C63.3006 56.0695 63.6182 55.9292 63.8644 55.6488C64.1219 55.3683 64.2507 55.002 64.2507 54.5498C64.2507 54.109 64.1219 53.7456 63.8644 53.4594C63.6125 53.1732 63.2948 53.0301 62.9113 53.0301C62.5336 53.0301 62.2159 53.1732 61.9583 53.4594C61.7007 53.7456 61.5719 54.109 61.5719 54.5498C61.5719 54.9962 61.7007 55.3597 61.9583 55.6402C62.2159 55.9264 62.5336 56.0695 62.9113 56.0695ZM62.7825 56.7907C62.2331 56.7907 61.7608 56.5732 61.3659 56.1382C60.9767 55.6974 60.782 55.168 60.782 54.5498C60.782 53.9316 60.9767 53.4021 61.3659 52.9614C61.7608 52.5264 62.2331 52.3089 62.7825 52.3089C63.0916 52.3089 63.3721 52.3747 63.624 52.5064C63.8815 52.638 64.079 52.8126 64.2164 53.0301H64.2507L64.2164 52.4463V50.5058H65.0063V56.6533H64.2507V56.0695H64.2164C64.079 56.287 63.8815 56.4616 63.624 56.5932C63.3721 56.7249 63.0916 56.7907 62.7825 56.7907ZM73.7413 53.8286C73.7413 54.6872 73.4865 55.3712 72.9771 55.8806C72.4047 56.4873 71.652 56.7907 70.719 56.7907C69.8261 56.7907 69.0705 56.4816 68.4524 55.8634C67.8342 55.2452 67.5251 54.484 67.5251 53.5796C67.5251 52.6752 67.8342 51.9139 68.4524 51.2957C69.0705 50.6776 69.8261 50.3685 70.719 50.3685C71.1712 50.3685 71.5977 50.4486 71.9983 50.6089C72.399 50.7691 72.7281 50.9952 72.9857 51.2872L72.419 51.8538C72.2301 51.6249 71.984 51.4474 71.6806 51.3215C71.383 51.1899 71.0625 51.124 70.719 51.124C70.0493 51.124 69.4827 51.3558 69.019 51.8195C68.5611 52.2888 68.3322 52.8755 68.3322 53.5796C68.3322 54.2836 68.5611 54.8703 69.019 55.3397C69.4827 55.8033 70.0493 56.0351 70.719 56.0351C71.3315 56.0351 71.8409 55.8634 72.2473 55.52C72.6537 55.1766 72.8884 54.7043 72.9514 54.1033H70.719V53.3649H73.6983C73.7269 53.5252 73.7413 53.6798 73.7413 53.8286ZM76.4106 56.7907C75.7924 56.7907 75.283 56.5789 74.8823 56.1553C74.4816 55.7318 74.2813 55.1966 74.2813 54.5498C74.2813 53.9087 74.4759 53.3764 74.8651 52.9528C75.2544 52.5235 75.7523 52.3089 76.3591 52.3089C76.983 52.3089 77.4781 52.5121 77.8444 52.9185C78.2165 53.3191 78.4025 53.883 78.4025 54.6099L78.3939 54.6957H75.0884C75.0998 55.1079 75.2372 55.4399 75.5005 55.6917C75.7638 55.9436 76.0786 56.0695 76.4449 56.0695C76.9486 56.0695 77.3436 55.8176 77.6298 55.3139L78.3338 55.6574C78.1449 56.0122 77.8816 56.2899 77.5439 56.4902C77.2119 56.6905 76.8342 56.7907 76.4106 56.7907ZM75.1485 54.0432H77.5611C77.5382 53.7513 77.418 53.5109 77.2005 53.322C76.9887 53.1274 76.7025 53.0301 76.3419 53.0301C76.0443 53.0301 75.7867 53.1217 75.5692 53.3048C75.3574 53.488 75.2171 53.7341 75.1485 54.0432ZM79.1249 52.4463H79.8804V53.0301H79.9148C80.035 52.824 80.2181 52.6523 80.4643 52.5149C80.7161 52.3776 80.9765 52.3089 81.2456 52.3089C81.7607 52.3089 82.1557 52.4577 82.4304 52.7553C82.7109 53.0473 82.8511 53.4651 82.8511 54.0089V56.6533H82.0612V54.0604C82.0441 53.3735 81.6978 53.0301 81.0223 53.0301C80.7075 53.0301 80.4442 53.1589 80.2324 53.4165C80.0206 53.6683 79.9148 53.9717 79.9148 54.3266V56.6533H79.1249V52.4463ZM87.7746 51.476L86.7701 54.2493H88.8135L87.809 51.476H87.7746ZM85.9029 56.6533H85.0272L87.3453 50.5058H88.2383L90.5565 56.6533H89.6807L89.0883 54.9877H86.5039L85.9029 56.6533ZM92.0673 56.6533H91.2774V50.5058H92.0673V56.6533ZM97.9188 56.7907C97.0087 56.7907 96.2474 56.4845 95.6349 55.872C95.0282 55.2595 94.7248 54.4954 94.7248 53.5796C94.7248 52.6638 95.0282 51.9025 95.6349 51.2957C96.2417 50.6776 97.0029 50.3685 97.9188 50.3685C98.846 50.3685 99.5987 50.7033 100.177 51.373L99.6102 51.9225C99.1694 51.3902 98.6056 51.124 97.9188 51.124C97.2376 51.124 96.6681 51.353 96.2102 51.8109C95.758 52.2631 95.5319 52.8526 95.5319 53.5796C95.5319 54.3065 95.758 54.8961 96.2102 55.3483C96.6681 55.8062 97.2376 56.0351 97.9188 56.0351C98.6342 56.0351 99.2553 55.7346 99.7819 55.1336L100.357 55.6917C100.065 56.0409 99.7075 56.3127 99.2839 56.5074C98.8603 56.6962 98.4053 56.7907 97.9188 56.7907ZM100.735 54.5498C100.735 53.903 100.938 53.3678 101.344 52.9442C101.757 52.5207 102.275 52.3089 102.898 52.3089C103.522 52.3089 104.037 52.5207 104.444 52.9442C104.856 53.3678 105.062 53.903 105.062 54.5498C105.062 55.2023 104.856 55.7375 104.444 56.1553C104.037 56.5789 103.522 56.7907 102.898 56.7907C102.275 56.7907 101.757 56.5789 101.344 56.1553C100.938 55.7318 100.735 55.1966 100.735 54.5498ZM101.525 54.5498C101.525 55.002 101.656 55.3683 101.92 55.6488C102.183 55.9292 102.509 56.0695 102.898 56.0695C103.288 56.0695 103.614 55.9292 103.877 55.6488C104.141 55.3683 104.272 55.002 104.272 54.5498C104.272 54.1033 104.141 53.7399 103.877 53.4594C103.608 53.1732 103.282 53.0301 102.898 53.0301C102.515 53.0301 102.189 53.1732 101.92 53.4594C101.656 53.7399 101.525 54.1033 101.525 54.5498ZM106.528 50.5058V56.6533H105.738V50.5058H106.528ZM108.28 50.5058V56.6533H107.49V50.5058H108.28ZM110.264 50.9952C110.264 51.1498 110.21 51.2814 110.101 51.3902C109.992 51.4989 109.861 51.5533 109.706 51.5533C109.552 51.5533 109.42 51.4989 109.311 51.3902C109.202 51.2814 109.148 51.1498 109.148 50.9952C109.148 50.8407 109.202 50.709 109.311 50.6003C109.42 50.4915 109.552 50.4372 109.706 50.4372C109.861 50.4372 109.992 50.4915 110.101 50.6003C110.21 50.709 110.264 50.8407 110.264 50.9952ZM110.101 52.4463V56.6533H109.311V52.4463H110.101ZM112.976 56.0695C113.365 56.0695 113.683 55.9292 113.929 55.6488C114.187 55.3683 114.315 55.002 114.315 54.5498C114.315 54.109 114.187 53.7456 113.929 53.4594C113.677 53.1732 113.359 53.0301 112.976 53.0301C112.598 53.0301 112.28 53.1732 112.023 53.4594C111.765 53.7456 111.637 54.109 111.637 54.5498C111.637 54.9962 111.765 55.3597 112.023 55.6402C112.28 55.9264 112.598 56.0695 112.976 56.0695ZM112.847 56.7907C112.298 56.7907 111.825 56.5732 111.43 56.1382C111.041 55.6974 110.847 55.168 110.847 54.5498C110.847 53.9316 111.041 53.4021 111.43 52.9614C111.825 52.5264 112.298 52.3089 112.847 52.3089C113.156 52.3089 113.437 52.3747 113.689 52.5064C113.946 52.638 114.144 52.8126 114.281 53.0301H114.315L114.281 52.4463V50.5058H115.071V56.6533H114.315V56.0695H114.281C114.144 56.287 113.946 56.4616 113.689 56.5932C113.437 56.7249 113.156 56.7907 112.847 56.7907ZM117.881 56.7907C117.263 56.7907 116.753 56.5789 116.353 56.1553C115.952 55.7318 115.752 55.1966 115.752 54.5498C115.752 53.9087 115.946 53.3764 116.335 52.9528C116.725 52.5235 117.223 52.3089 117.829 52.3089C118.453 52.3089 118.948 52.5121 119.315 52.9185C119.687 53.3191 119.873 53.883 119.873 54.6099L119.864 54.6957H116.559C116.57 55.1079 116.708 55.4399 116.971 55.6917C117.234 55.9436 117.549 56.0695 117.915 56.0695C118.419 56.0695 118.814 55.8176 119.1 55.3139L119.804 55.6574C119.615 56.0122 119.352 56.2899 119.014 56.4902C118.682 56.6905 118.305 56.7907 117.881 56.7907ZM116.619 54.0432H119.031C119.009 53.7513 118.888 53.5109 118.671 53.322C118.459 53.1274 118.173 53.0301 117.812 53.0301C117.515 53.0301 117.257 53.1217 117.04 53.3048C116.828 53.488 116.688 53.7341 116.619 54.0432ZM123.857 55.4856C123.857 55.852 123.697 56.1611 123.376 56.4129C123.055 56.6648 122.652 56.7907 122.165 56.7907C121.742 56.7907 121.37 56.6819 121.049 56.4644C120.729 56.2412 120.5 55.9493 120.362 55.5887L121.066 55.2882C121.169 55.54 121.318 55.7375 121.513 55.8806C121.713 56.018 121.931 56.0867 122.165 56.0867C122.417 56.0867 122.626 56.0323 122.792 55.9235C122.964 55.8148 123.05 55.686 123.05 55.5372C123.05 55.2681 122.844 55.0707 122.432 54.9447L121.71 54.7644C120.892 54.5584 120.483 54.1634 120.483 53.5796C120.483 53.1961 120.637 52.8899 120.946 52.6609C121.261 52.4262 121.662 52.3089 122.148 52.3089C122.52 52.3089 122.855 52.3976 123.153 52.575C123.456 52.7525 123.668 52.99 123.788 53.2877L123.084 53.5796C123.004 53.4021 122.872 53.2648 122.689 53.1675C122.512 53.0644 122.311 53.0129 122.088 53.0129C121.882 53.0129 121.696 53.0644 121.53 53.1675C121.37 53.2705 121.29 53.3964 121.29 53.5452C121.29 53.7856 121.516 53.9574 121.968 54.0604L122.603 54.2235C123.439 54.4296 123.857 54.8503 123.857 55.4856ZM125.643 56.121C125.643 56.2813 125.586 56.4186 125.472 56.5331C125.363 56.6476 125.226 56.7048 125.06 56.7048C124.899 56.7048 124.762 56.6476 124.647 56.5331C124.533 56.4186 124.476 56.2813 124.476 56.121C124.476 55.955 124.533 55.8176 124.647 55.7089C124.762 55.5944 124.899 55.5372 125.06 55.5372C125.226 55.5372 125.363 55.5944 125.472 55.7089C125.586 55.8176 125.643 55.955 125.643 56.121ZM127.639 56.121C127.639 56.2813 127.582 56.4186 127.467 56.5331C127.358 56.6476 127.221 56.7048 127.055 56.7048C126.895 56.7048 126.757 56.6476 126.643 56.5331C126.528 56.4186 126.471 56.2813 126.471 56.121C126.471 55.955 126.528 55.8176 126.643 55.7089C126.757 55.5944 126.895 55.5372 127.055 55.5372C127.221 55.5372 127.358 55.5944 127.467 55.7089C127.582 55.8176 127.639 55.955 127.639 56.121ZM129.634 56.121C129.634 56.2813 129.577 56.4186 129.463 56.5331C129.354 56.6476 129.217 56.7048 129.051 56.7048C128.89 56.7048 128.753 56.6476 128.638 56.5331C128.524 56.4186 128.467 56.2813 128.467 56.121C128.467 55.955 128.524 55.8176 128.638 55.7089C128.753 55.5944 128.89 55.5372 129.051 55.5372C129.217 55.5372 129.354 55.5944 129.463 55.7089C129.577 55.8176 129.634 55.955 129.634 56.121ZM131.63 56.121C131.63 56.2813 131.573 56.4186 131.458 56.5331C131.35 56.6476 131.212 56.7048 131.046 56.7048C130.886 56.7048 130.749 56.6476 130.634 56.5331C130.52 56.4186 130.462 56.2813 130.462 56.121C130.462 55.955 130.52 55.8176 130.634 55.7089C130.749 55.5944 130.886 55.5372 131.046 55.5372C131.212 55.5372 131.35 55.5944 131.458 55.7089C131.573 55.8176 131.63 55.955 131.63 56.121ZM133.626 56.121C133.626 56.2813 133.568 56.4186 133.454 56.5331C133.345 56.6476 133.208 56.7048 133.042 56.7048C132.881 56.7048 132.744 56.6476 132.63 56.5331C132.515 56.4186 132.458 56.2813 132.458 56.121C132.458 55.955 132.515 55.8176 132.63 55.7089C132.744 55.5944 132.881 55.5372 133.042 55.5372C133.208 55.5372 133.345 55.5944 133.454 55.7089C133.568 55.8176 133.626 55.955 133.626 56.121Z" fill="#202124"/>
<path d="M7.10812 4.16455V18H5.08127V4.16455H0.675075V2.22582H11.5143V4.16455H7.10812ZM12.6167 2.22582H14.6436V7.20482L14.5554 8.70293H14.6436C14.952 8.17419 15.422 7.73357 16.0536 7.38107C16.6998 7.02858 17.3681 6.85233 18.0584 6.85233C19.3802 6.85233 20.3937 7.2342 21.0986 7.99794C21.8183 8.74699 22.1782 9.81917 22.1782 11.2145V18H20.1513V11.611C20.1513 9.67229 19.2921 8.70293 17.5737 8.70293C16.7512 8.70293 16.0536 9.04808 15.4807 9.73839C14.9226 10.414 14.6436 11.2071 14.6436 12.1177V18H12.6167V2.22582ZM28.7432 18.3525C27.157 18.3525 25.8498 17.8091 24.8217 16.7222C23.7936 15.6353 23.2795 14.2621 23.2795 12.6024C23.2795 10.9574 23.7789 9.59151 24.7776 8.50465C25.7764 7.4031 27.0542 6.85233 28.611 6.85233C30.212 6.85233 31.4824 7.37373 32.4224 8.41653C33.3771 9.44464 33.8544 10.8913 33.8544 12.7566L33.8324 12.9769H25.3505C25.3798 14.0344 25.7323 14.8863 26.4079 15.5325C27.0836 16.1788 27.8914 16.5019 28.8313 16.5019C30.1238 16.5019 31.1373 15.8557 31.8716 14.5632L33.6782 15.4444C33.1935 16.355 32.5179 17.0674 31.6513 17.5814C30.7994 18.0955 29.8301 18.3525 28.7432 18.3525ZM25.5047 11.3026H31.6954C31.6366 10.5535 31.3282 9.93666 30.7701 9.45198C30.2266 8.95261 29.4923 8.70293 28.567 8.70293C27.8032 8.70293 27.1423 8.93793 26.5842 9.40792C26.0408 9.87791 25.6809 10.5095 25.5047 11.3026ZM39.5794 18V2.22582H44.4041C46.8129 2.22582 48.7442 2.95285 50.1983 4.40689C51.667 5.86093 52.4014 7.76294 52.4014 10.1129C52.4014 12.4776 51.667 14.3869 50.1983 15.841C48.7442 17.2803 46.8129 18 44.4041 18H39.5794ZM41.6062 4.16455V16.0613H44.4041C46.2401 16.0613 47.6868 15.5399 48.7442 14.4971C49.8017 13.4396 50.3305 11.9782 50.3305 10.1129C50.3305 8.26231 49.8017 6.80827 48.7442 5.75078C47.6868 4.69329 46.2401 4.16455 44.4041 4.16455H41.6062ZM55.2744 14.6954C55.2744 15.2241 55.4947 15.6647 55.9353 16.0172C56.3906 16.3697 56.9193 16.546 57.5215 16.546C58.3734 16.546 59.1298 16.2302 59.7907 15.5986C60.4663 14.9671 60.8041 14.2254 60.8041 13.3735C60.1726 12.8741 59.2913 12.6244 58.1604 12.6244C57.3379 12.6244 56.6476 12.8227 56.0895 13.2193C55.5461 13.6158 55.2744 14.1079 55.2744 14.6954ZM57.896 6.85233C59.3942 6.85233 60.5765 7.25623 61.443 8.06403C62.3096 8.85715 62.7429 9.95135 62.7429 11.3466V18H60.8041V16.5019H60.716C59.8788 17.7356 58.7626 18.3525 57.3673 18.3525C56.1776 18.3525 55.1789 18 54.3711 17.295C53.578 16.59 53.1814 15.7088 53.1814 14.6513C53.1814 13.5351 53.6 12.6465 54.4372 11.9855C55.289 11.3246 56.42 10.9942 57.83 10.9942C59.0343 10.9942 60.0257 11.2145 60.8041 11.6551V11.1924C60.8041 10.4874 60.5251 9.8926 59.967 9.40792C59.4088 8.90855 58.7553 8.65887 58.0062 8.65887C56.8753 8.65887 55.9794 9.13621 55.3184 10.0909L53.5339 8.9673C54.518 7.55732 55.972 6.85233 57.896 6.85233ZM68.4269 18.1762C67.5456 18.1762 66.8112 17.9045 66.2238 17.3611C65.6509 16.8177 65.3572 16.0613 65.3425 15.0919V9.05543H63.4479V7.20482H65.3425V3.90018H67.3694V7.20482H70.0131V9.05543H67.3694V14.431C67.3694 15.1507 67.5089 15.6427 67.788 15.9071C68.067 16.1567 68.3828 16.2816 68.7353 16.2816C68.8968 16.2816 69.0511 16.2669 69.1979 16.2375C69.3595 16.1935 69.5064 16.1421 69.6386 16.0833L70.2775 17.8898C69.7487 18.0808 69.1318 18.1762 68.4269 18.1762ZM72.5411 14.6954C72.5411 15.2241 72.7614 15.6647 73.2021 16.0172C73.6574 16.3697 74.1861 16.546 74.7883 16.546C75.6402 16.546 76.3966 16.2302 77.0575 15.5986C77.7331 14.9671 78.0709 14.2254 78.0709 13.3735C77.4394 12.8741 76.5581 12.6244 75.4272 12.6244C74.6047 12.6244 73.9144 12.8227 73.3563 13.2193C72.8129 13.6158 72.5411 14.1079 72.5411 14.6954ZM75.1628 6.85233C76.6609 6.85233 77.8433 7.25623 78.7098 8.06403C79.5764 8.85715 80.0096 9.95135 80.0096 11.3466V18H78.0709V16.5019H77.9828C77.1456 17.7356 76.0294 18.3525 74.6341 18.3525C73.4444 18.3525 72.4457 18 71.6379 17.295C70.8448 16.59 70.4482 15.7088 70.4482 14.6513C70.4482 13.5351 70.8668 12.6465 71.704 11.9855C72.5558 11.3246 73.6867 10.9942 75.0967 10.9942C76.3011 10.9942 77.2925 11.2145 78.0709 11.6551V11.1924C78.0709 10.4874 77.7919 9.8926 77.2337 9.40792C76.6756 8.90855 76.022 8.65887 75.273 8.65887C74.1421 8.65887 73.2461 9.13621 72.5852 10.0909L70.8007 8.9673C71.7847 7.55732 73.2388 6.85233 75.1628 6.85233ZM95.9048 15.2682L97.3809 17.2069L95.8607 18.3525L94.7812 16.9205C93.7091 17.8752 92.49 18.3525 91.1241 18.3525C89.5232 18.3525 88.1646 17.8164 87.0484 16.7442C85.9321 15.6721 85.374 14.3502 85.374 12.7787C85.374 11.8534 85.6163 10.9795 86.101 10.157C86.6004 9.3198 87.2687 8.64418 88.1058 8.13012C87.3421 7.14607 86.9602 6.27218 86.9602 5.50844C86.9602 4.5097 87.3348 3.65784 88.0838 2.95285C88.8329 2.23317 89.7288 1.87333 90.7716 1.87333C91.6088 1.87333 92.3358 2.11567 92.9527 2.60035C93.5695 3.07034 94.0175 3.71659 94.2965 4.53908L92.5561 5.46438C92.1449 4.36283 91.55 3.81205 90.7716 3.81205C90.2575 3.81205 89.8316 3.96627 89.4938 4.2747C89.1707 4.58314 89.0091 4.99438 89.0091 5.50844C89.0091 6.00781 89.178 6.4778 89.5158 6.91842L94.7372 13.748L96.1471 11.3907L97.7334 12.3601L95.9048 15.2682ZM87.2246 12.7787C87.2246 13.8361 87.5991 14.7247 88.3482 15.4444C89.0972 16.1494 90.0225 16.5019 91.1241 16.5019C92.1669 16.5019 93.0114 16.1494 93.6576 15.4444L89.2294 9.6062C88.6126 9.94401 88.1205 10.3993 87.7533 10.9721C87.4009 11.5449 87.2246 12.1471 87.2246 12.7787ZM118.054 10.7518C118.054 12.9549 117.4 14.71 116.093 16.0172C114.624 17.5741 112.693 18.3525 110.299 18.3525C108.008 18.3525 106.069 17.5594 104.483 15.9732C102.897 14.3869 102.103 12.4335 102.103 10.1129C102.103 7.79232 102.897 5.8389 104.483 4.25267C106.069 2.66644 108.008 1.87333 110.299 1.87333C111.459 1.87333 112.553 2.07895 113.582 2.49019C114.61 2.90144 115.454 3.48159 116.115 4.23064L114.661 5.68469C114.176 5.09719 113.545 4.64189 112.766 4.31877C112.003 3.98096 111.18 3.81205 110.299 3.81205C108.581 3.81205 107.126 4.40689 105.937 5.59656C104.762 6.80092 104.174 8.30637 104.174 10.1129C104.174 11.9195 104.762 13.4249 105.937 14.6293C107.126 15.8189 108.581 16.4138 110.299 16.4138C111.87 16.4138 113.178 15.9732 114.22 15.0919C115.263 14.2107 115.865 12.999 116.027 11.4568H110.299V9.56214H117.944C118.017 9.97338 118.054 10.3699 118.054 10.7518ZM124.242 18.3525C122.656 18.3525 121.349 17.8091 120.321 16.7222C119.293 15.6353 118.779 14.2621 118.779 12.6024C118.779 10.9574 119.278 9.59151 120.277 8.50465C121.275 7.4031 122.553 6.85233 124.11 6.85233C125.711 6.85233 126.982 7.37373 127.921 8.41653C128.876 9.44464 129.354 10.8913 129.354 12.7566L129.331 12.9769H120.85C120.879 14.0344 121.231 14.8863 121.907 15.5325C122.583 16.1788 123.39 16.5019 124.33 16.5019C125.623 16.5019 126.636 15.8557 127.371 14.5632L129.177 15.4444C128.693 16.355 128.017 17.0674 127.15 17.5814C126.299 18.0955 125.329 18.3525 124.242 18.3525ZM121.004 11.3026H127.194C127.136 10.5535 126.827 9.93666 126.269 9.45198C125.726 8.95261 124.991 8.70293 124.066 8.70293C123.302 8.70293 122.641 8.93793 122.083 9.40792C121.54 9.87791 121.18 10.5095 121.004 11.3026ZM130.546 7.20482H132.485V8.70293H132.573C132.881 8.17419 133.351 7.73357 133.983 7.38107C134.629 7.02858 135.297 6.85233 135.988 6.85233C137.31 6.85233 138.323 7.2342 139.028 7.99794C139.748 8.74699 140.108 9.81917 140.108 11.2145V18H138.081V11.3466C138.037 9.58417 137.148 8.70293 135.415 8.70293C134.607 8.70293 133.932 9.03339 133.388 9.69432C132.845 10.3406 132.573 11.119 132.573 12.0296V18H130.546V7.20482ZM147.906 4.71532L145.329 11.8313H150.572L147.994 4.71532H147.906ZM143.104 18H140.856L146.805 2.22582H149.096L155.044 18H152.797L151.277 13.726H144.646L143.104 18ZM158.26 18H156.233V2.22582H158.26V18ZM38.5481 38H36.5213V22.2258H38.9887L46.6555 34.4971H46.7436L46.6555 31.4568V22.2258H48.6824V38H46.5674L38.5481 25.1339H38.46L38.5481 28.1742V38ZM55.6946 38.3525C54.1084 38.3525 52.8012 37.8091 51.7731 36.7222C50.745 35.6353 50.2309 34.2621 50.2309 32.6024C50.2309 30.9574 50.7303 29.5915 51.729 28.5047C52.7278 27.4031 54.0056 26.8523 55.5624 26.8523C57.1633 26.8523 58.4338 27.3737 59.3738 28.4165C60.3284 29.4446 60.8058 30.8913 60.8058 32.7566L60.7837 32.9769H52.3018C52.3312 34.0344 52.6837 34.8863 53.3593 35.5325C54.0349 36.1788 54.8427 36.5019 55.7827 36.5019C57.0752 36.5019 58.0886 35.8557 58.823 34.5632L60.6295 35.4444C60.1448 36.355 59.4692 37.0674 58.6027 37.5814C57.7508 38.0955 56.7815 38.3525 55.6946 38.3525ZM52.456 31.3026H58.6467C58.588 30.5535 58.2796 29.9367 57.7214 29.452C57.178 28.9526 56.4436 28.7029 55.5183 28.7029C54.7546 28.7029 54.0937 28.9379 53.5356 29.4079C52.9921 29.8779 52.6323 30.5095 52.456 31.3026ZM66.9164 32.5143L70.7719 38H68.3925L65.7268 34.0124L63.1051 38H60.7257L64.5371 32.5143L60.8139 27.2048H63.1051L65.7708 31.0162L68.3044 27.2048H70.6837L66.9164 32.5143ZM80.9872 38H79.0484V36.5019H78.9603C78.6519 37.0306 78.1746 37.4713 77.5283 37.8238C76.8968 38.1762 76.2358 38.3525 75.5455 38.3525C74.2237 38.3525 73.2029 37.978 72.4832 37.2289C71.7782 36.4652 71.4257 35.3857 71.4257 33.9904V27.2048H73.4526V33.8582C73.4966 35.6207 74.3852 36.5019 76.1183 36.5019C76.9261 36.5019 77.6017 36.1788 78.1452 35.5325C78.6886 34.8716 78.9603 34.0858 78.9603 33.1752V27.2048H80.9872V38ZM90.9476 35.0038C90.9476 35.9438 90.5363 36.7369 89.7139 37.3831C88.8914 38.0294 87.8559 38.3525 86.6075 38.3525C85.5206 38.3525 84.566 38.0734 83.7435 37.5153C82.921 36.9425 82.3335 36.1935 81.981 35.2682L83.7875 34.4971C84.0519 35.1433 84.4338 35.65 84.9331 36.0172C85.4472 36.3697 86.0053 36.546 86.6075 36.546C87.2537 36.546 87.7898 36.4064 88.2157 36.1274C88.6564 35.8483 88.8767 35.5178 88.8767 35.136C88.8767 34.4457 88.3479 33.939 87.2904 33.6158L85.4398 33.1532C83.3396 32.6244 82.2894 31.611 82.2894 30.1129C82.2894 29.1289 82.686 28.3431 83.4791 27.7556C84.2869 27.1534 85.315 26.8523 86.5634 26.8523C87.5181 26.8523 88.3773 27.08 89.141 27.5353C89.9195 27.9906 90.4629 28.6001 90.7713 29.3639L88.9648 30.1129C88.7592 29.6576 88.4214 29.3051 87.9514 29.0554C87.4961 28.7911 86.982 28.6589 86.4092 28.6589C85.8805 28.6589 85.4031 28.7911 84.9772 29.0554C84.566 29.3198 84.3603 29.6429 84.3603 30.0248C84.3603 30.6417 84.9405 31.0823 86.1008 31.3466L87.7311 31.7652C89.8754 32.294 90.9476 33.3735 90.9476 35.0038ZM99.7557 38.3525C99.2416 38.3525 98.7276 38.2644 98.2135 38.0881C97.6994 37.9266 97.2221 37.6769 96.7815 37.3391C96.3556 37.0013 95.9957 36.5827 95.702 36.0833C95.4082 35.5692 95.232 34.9671 95.1732 34.2768L97.112 33.5497C97.1854 34.3722 97.4498 35.0552 97.9051 35.5986C98.3604 36.1421 99.0066 36.4138 99.8438 36.4138C100.373 36.4138 100.865 36.333 101.32 36.1714C101.775 36.0099 102.172 35.7822 102.51 35.4885C102.847 35.18 103.112 34.8202 103.303 34.409C103.508 33.983 103.611 33.5057 103.611 32.9769C103.611 32.1398 103.369 31.4641 102.884 30.9501C102.414 30.4213 101.76 30.157 100.923 30.157C100.409 30.157 99.9099 30.2745 99.4252 30.5095C98.9405 30.7445 98.5219 31.0602 98.1694 31.4568L96.2748 30.5756L98.588 22.9308H106.497L106.167 24.8695H99.9099L98.588 29.1876L98.6762 29.2096C99.058 28.9306 99.484 28.7103 99.9539 28.5487C100.439 28.3872 100.938 28.3064 101.452 28.3064C102.084 28.3064 102.656 28.4092 103.17 28.6148C103.685 28.8204 104.125 29.1142 104.492 29.496C104.874 29.8779 105.168 30.3479 105.374 30.906C105.579 31.4495 105.682 32.0663 105.682 32.7566C105.682 33.5057 105.535 34.2254 105.241 34.9157C104.962 35.5913 104.558 36.1861 104.03 36.7002C103.516 37.1995 102.891 37.6034 102.157 37.9119C101.437 38.2056 100.637 38.3525 99.7557 38.3525ZM107.966 38.1322C107.54 38.1322 107.181 37.9927 106.887 37.7136C106.608 37.4199 106.468 37.06 106.468 36.6341C106.468 36.2081 106.608 35.8557 106.887 35.5766C107.181 35.2828 107.54 35.136 107.966 35.136C108.392 35.136 108.745 35.2828 109.024 35.5766C109.318 35.8557 109.464 36.2081 109.464 36.6341C109.464 37.06 109.318 37.4199 109.024 37.7136C108.745 37.9927 108.392 38.1322 107.966 38.1322ZM116.898 38.3525C116.12 38.3525 115.415 38.1983 114.783 37.8898C114.152 37.5814 113.616 37.1481 113.175 36.59C112.734 36.0172 112.397 35.3269 112.162 34.5191C111.927 33.7113 111.809 32.8007 111.809 31.7873C111.809 30.5388 111.993 29.3565 112.36 28.2403C112.742 27.124 113.263 26.1473 113.924 25.3102C114.585 24.473 115.363 23.8121 116.259 23.3274C117.155 22.828 118.125 22.5783 119.167 22.5783C120.783 22.5783 122.039 23.1511 122.935 24.2967C123.831 25.4423 124.279 27.0433 124.279 29.0995C124.279 30.3626 124.088 31.5596 123.706 32.6905C123.339 33.8068 122.825 34.7835 122.164 35.6207C121.503 36.4578 120.724 37.1261 119.828 37.6255C118.932 38.1102 117.956 38.3525 116.898 38.3525ZM117.074 36.4138C117.735 36.4138 118.367 36.2302 118.969 35.863C119.586 35.4958 120.129 34.9964 120.599 34.3649C121.084 33.7186 121.466 32.9623 121.745 32.0957C122.039 31.2145 122.186 30.2745 122.186 29.2757C122.186 27.8217 121.914 26.6687 121.37 25.8169C120.842 24.9503 120.027 24.517 118.925 24.517C118.293 24.517 117.677 24.708 117.074 25.0899C116.472 25.4717 115.936 25.9931 115.466 26.654C114.996 27.3003 114.614 28.0567 114.321 28.9232C114.042 29.7751 113.902 30.6857 113.902 31.6551C113.902 33.1826 114.188 34.3575 114.761 35.18C115.334 36.0025 116.105 36.4138 117.074 36.4138Z" fill="#202124"/>
</svg>
