<svg width="126" height="47" viewBox="0 0 126 47" fill="none" xmlns="http://www.w3.org/2000/svg">
<path d="M9.15955 39.5049H9.80925L8.51662 44.3506H7.88046L6.83824 41.1562H6.81117L5.76895 44.3506H5.13278L3.78602 39.5049H4.43571L5.45763 43.3151H5.4847L6.53369 40.1546H7.11571L8.1647 43.3151H8.19177L9.15955 39.5049ZM10.2957 39.5049H10.9183V41.0344L10.8912 41.4946H10.9183C11.013 41.3322 11.1574 41.1968 11.3514 41.0886C11.55 40.9803 11.7552 40.9261 11.9673 40.9261C12.3734 40.9261 12.6847 41.0434 12.9012 41.2781C13.1223 41.5082 13.2328 41.8375 13.2328 42.2661V44.3506H12.6102V42.388C12.6102 41.7924 12.3463 41.4946 11.8184 41.4946C11.5657 41.4946 11.3514 41.6007 11.1755 41.8127C11.004 42.0202 10.9183 42.2639 10.9183 42.5436V44.3506H10.2957V39.5049ZM15.4526 44.4589C14.9653 44.4589 14.5638 44.2919 14.2479 43.9581C13.9321 43.6242 13.7742 43.2023 13.7742 42.6925C13.7742 42.1872 13.9276 41.7676 14.2344 41.4337C14.5412 41.0953 14.9337 40.9261 15.412 40.9261C15.9038 40.9261 16.294 41.0863 16.5828 41.4066C16.8761 41.7225 17.0227 42.1669 17.0227 42.7399L17.0159 42.8076H14.4104C14.4194 43.1324 14.5277 43.3941 14.7352 43.5926C14.9428 43.7911 15.1909 43.8904 15.4797 43.8904C15.8767 43.8904 16.188 43.6919 16.4136 43.2948L16.9686 43.5655C16.8197 43.8453 16.6121 44.0641 16.3459 44.222C16.0842 44.3799 15.7865 44.4589 15.4526 44.4589ZM14.4577 42.2932H16.3595C16.3414 42.0631 16.2467 41.8736 16.0752 41.7247C15.9083 41.5713 15.6827 41.4946 15.3985 41.4946C15.1638 41.4946 14.9608 41.5668 14.7894 41.7112C14.6224 41.8556 14.5119 42.0496 14.4577 42.2932ZM18.2147 44.3506H17.5921V41.0344H18.1876V41.5758H18.2147C18.2779 41.3999 18.4065 41.251 18.6005 41.1292C18.799 41.0028 18.993 40.9397 19.1825 40.9397C19.363 40.9397 19.5164 40.9667 19.6427 41.0209L19.4532 41.6232C19.3765 41.5916 19.2547 41.5758 19.0877 41.5758C18.8531 41.5758 18.6478 41.6706 18.4719 41.8601C18.3004 42.0496 18.2147 42.2707 18.2147 42.5233V44.3506ZM21.3347 44.4589C20.8474 44.4589 20.4458 44.2919 20.13 43.9581C19.8142 43.6242 19.6563 43.2023 19.6563 42.6925C19.6563 42.1872 19.8097 41.7676 20.1165 41.4337C20.4233 41.0953 20.8158 40.9261 21.294 40.9261C21.7858 40.9261 22.1761 41.0863 22.4649 41.4066C22.7581 41.7225 22.9048 42.1669 22.9048 42.7399L22.898 42.8076H20.2924C20.3015 43.1324 20.4097 43.3941 20.6173 43.5926C20.8248 43.7911 21.073 43.8904 21.3617 43.8904C21.7588 43.8904 22.0701 43.6919 22.2957 43.2948L22.8506 43.5655C22.7017 43.8453 22.4942 44.0641 22.228 44.222C21.9663 44.3799 21.6685 44.4589 21.3347 44.4589ZM20.3398 42.2932H22.2415C22.2235 42.0631 22.1287 41.8736 21.9573 41.7247C21.7903 41.5713 21.5648 41.4946 21.2805 41.4946C21.0459 41.4946 20.8429 41.5668 20.6714 41.7112C20.5045 41.8556 20.3939 42.0496 20.3398 42.2932ZM25.0695 44.3506V39.5049H26.5516C27.2915 39.5049 27.8848 39.7283 28.3315 40.1749C28.7827 40.6216 29.0082 41.2059 29.0082 41.9278C29.0082 42.6542 28.7827 43.2407 28.3315 43.6874C27.8848 44.1295 27.2915 44.3506 26.5516 44.3506H25.0695ZM25.6921 40.1005V43.755H26.5516C27.1156 43.755 27.56 43.5949 27.8848 43.2745C28.2097 42.9497 28.3721 42.5008 28.3721 41.9278C28.3721 41.3593 28.2097 40.9126 27.8848 40.5878C27.56 40.2629 27.1156 40.1005 26.5516 40.1005H25.6921ZM30.0938 43.3354C30.0938 43.4979 30.1615 43.6332 30.2969 43.7415C30.4367 43.8498 30.5991 43.9039 30.7841 43.9039C31.0458 43.9039 31.2782 43.8069 31.4812 43.6129C31.6887 43.4189 31.7925 43.1911 31.7925 42.9294C31.5985 42.776 31.3278 42.6993 30.9804 42.6993C30.7277 42.6993 30.5157 42.7602 30.3442 42.882C30.1773 43.0038 30.0938 43.155 30.0938 43.3354ZM30.8992 40.9261C31.3594 40.9261 31.7226 41.0502 31.9888 41.2984C32.255 41.542 32.3881 41.8781 32.3881 42.3067V44.3506H31.7925V43.8904H31.7654C31.5083 44.2694 31.1654 44.4589 30.7368 44.4589C30.3713 44.4589 30.0645 44.3506 29.8163 44.134C29.5727 43.9175 29.4509 43.6467 29.4509 43.3219C29.4509 42.979 29.5795 42.706 29.8367 42.503C30.0983 42.3 30.4457 42.1985 30.8789 42.1985C31.2488 42.1985 31.5534 42.2661 31.7925 42.4015V42.2594C31.7925 42.0428 31.7068 41.8601 31.5353 41.7112C31.3639 41.5578 31.1631 41.4811 30.933 41.4811C30.5856 41.4811 30.3104 41.6277 30.1074 41.921L29.5592 41.5758C29.8615 41.1427 30.3081 40.9261 30.8992 40.9261ZM34.3372 44.4047C34.0664 44.4047 33.8409 44.3213 33.6604 44.1543C33.4844 43.9874 33.3942 43.755 33.3897 43.4573V41.6029H32.8077V41.0344H33.3897V40.0193H34.0123V41.0344H34.8244V41.6029H34.0123V43.2542C34.0123 43.4753 34.0552 43.6264 34.1409 43.7077C34.2266 43.7844 34.3236 43.8227 34.4319 43.8227C34.4815 43.8227 34.5289 43.8182 34.574 43.8092C34.6237 43.7956 34.6688 43.7798 34.7094 43.7618L34.9056 44.3167C34.7432 44.3754 34.5537 44.4047 34.3372 44.4047ZM35.8041 43.3354C35.8041 43.4979 35.8717 43.6332 36.0071 43.7415C36.1469 43.8498 36.3094 43.9039 36.4944 43.9039C36.756 43.9039 36.9884 43.8069 37.1914 43.6129C37.399 43.4189 37.5027 43.1911 37.5027 42.9294C37.3087 42.776 37.038 42.6993 36.6906 42.6993C36.438 42.6993 36.2259 42.7602 36.0545 42.882C35.8875 43.0038 35.8041 43.155 35.8041 43.3354ZM36.6094 40.9261C37.0696 40.9261 37.4328 41.0502 37.699 41.2984C37.9652 41.542 38.0983 41.8781 38.0983 42.3067V44.3506H37.5027V43.8904H37.4757C37.2185 44.2694 36.8756 44.4589 36.447 44.4589C36.0815 44.4589 35.7747 44.3506 35.5266 44.134C35.2829 43.9175 35.1611 43.6467 35.1611 43.3219C35.1611 42.979 35.2897 42.706 35.5469 42.503C35.8086 42.3 36.156 42.1985 36.5891 42.1985C36.9591 42.1985 37.2636 42.2661 37.5027 42.4015V42.2594C37.5027 42.0428 37.417 41.8601 37.2456 41.7112C37.0741 41.5578 36.8733 41.4811 36.6432 41.4811C36.2958 41.4811 36.0206 41.6277 35.8176 41.921L35.2694 41.5758C35.5717 41.1427 36.0184 40.9261 36.6094 40.9261ZM40.741 43.3354C40.741 43.4979 40.8087 43.6332 40.944 43.7415C41.0839 43.8498 41.2463 43.9039 41.4313 43.9039C41.693 43.9039 41.9254 43.8069 42.1284 43.6129C42.3359 43.4189 42.4397 43.1911 42.4397 42.9294C42.2457 42.776 41.975 42.6993 41.6276 42.6993C41.3749 42.6993 41.1629 42.7602 40.9914 42.882C40.8245 43.0038 40.741 43.155 40.741 43.3354ZM41.5464 40.9261C42.0066 40.9261 42.3698 41.0502 42.636 41.2984C42.9022 41.542 43.0353 41.8781 43.0353 42.3067V44.3506H42.4397V43.8904H42.4126C42.1555 44.2694 41.8126 44.4589 41.3839 44.4589C41.0185 44.4589 40.7117 44.3506 40.4635 44.134C40.2199 43.9175 40.0981 43.6467 40.0981 43.3219C40.0981 42.979 40.2267 42.706 40.4838 42.503C40.7455 42.3 41.0929 42.1985 41.5261 42.1985C41.896 42.1985 42.2006 42.2661 42.4397 42.4015V42.2594C42.4397 42.0428 42.354 41.8601 42.1825 41.7112C42.0111 41.5578 41.8103 41.4811 41.5802 41.4811C41.2328 41.4811 40.9576 41.6277 40.7546 41.921L40.2064 41.5758C40.5087 41.1427 40.9553 40.9261 41.5464 40.9261ZM43.7375 41.0344H44.3331V41.4946H44.3601C44.4549 41.3322 44.5993 41.1968 44.7933 41.0886C44.9918 40.9803 45.1971 40.9261 45.4091 40.9261C45.8152 40.9261 46.1265 41.0434 46.3431 41.2781C46.5641 41.5082 46.6747 41.8375 46.6747 42.2661V44.3506H46.0521V42.3067C46.0385 41.7653 45.7656 41.4946 45.2332 41.4946C44.985 41.4946 44.7775 41.5961 44.6105 41.7992C44.4436 41.9977 44.3601 42.2368 44.3601 42.5165V44.3506H43.7375V41.0344ZM48.8944 43.8904C49.2012 43.8904 49.4516 43.7798 49.6456 43.5588C49.8487 43.3377 49.9502 43.0489 49.9502 42.6925C49.9502 42.3451 49.8487 42.0586 49.6456 41.833C49.4471 41.6074 49.1967 41.4946 48.8944 41.4946C48.5967 41.4946 48.3462 41.6074 48.1432 41.833C47.9402 42.0586 47.8387 42.3451 47.8387 42.6925C47.8387 43.0444 47.9402 43.3309 48.1432 43.552C48.3462 43.7776 48.5967 43.8904 48.8944 43.8904ZM48.7929 44.4589C48.3598 44.4589 47.9876 44.2874 47.6762 43.9445C47.3694 43.5971 47.216 43.1798 47.216 42.6925C47.216 42.2052 47.3694 41.7879 47.6762 41.4405C47.9876 41.0976 48.3598 40.9261 48.7929 40.9261C49.0366 40.9261 49.2576 40.978 49.4561 41.0818C49.6592 41.1856 49.8148 41.3232 49.9231 41.4946H49.9502L49.9231 41.0344V39.5049H50.5457V44.3506H49.9502V43.8904H49.9231C49.8148 44.0618 49.6592 44.1994 49.4561 44.3032C49.2576 44.407 49.0366 44.4589 48.7929 44.4589ZM57.431 42.124C57.431 42.8008 57.2302 43.3399 56.8286 43.7415C56.3775 44.2197 55.7842 44.4589 55.0487 44.4589C54.3449 44.4589 53.7493 44.2152 53.2621 43.728C52.7748 43.2407 52.5312 42.6406 52.5312 41.9278C52.5312 41.2149 52.7748 40.6148 53.2621 40.1276C53.7493 39.6403 54.3449 39.3966 55.0487 39.3966C55.4052 39.3966 55.7413 39.4598 56.0571 39.5861C56.3729 39.7125 56.6324 39.8907 56.8354 40.1208L56.3887 40.5675C56.2398 40.387 56.0458 40.2471 55.8067 40.1479C55.5721 40.0441 55.3194 39.9922 55.0487 39.9922C54.5209 39.9922 54.0742 40.1749 53.7087 40.5404C53.3478 40.9104 53.1673 41.3728 53.1673 41.9278C53.1673 42.4827 53.3478 42.9452 53.7087 43.3151C54.0742 43.6806 54.5209 43.8633 55.0487 43.8633C55.5315 43.8633 55.933 43.728 56.2534 43.4573C56.5737 43.1865 56.7587 42.8143 56.8083 42.3406H55.0487V41.7586H57.3971C57.4197 41.8849 57.431 42.0067 57.431 42.124ZM59.535 44.4589C59.0477 44.4589 58.6462 44.2919 58.3304 43.9581C58.0145 43.6242 57.8566 43.2023 57.8566 42.6925C57.8566 42.1872 58.01 41.7676 58.3168 41.4337C58.6236 41.0953 59.0162 40.9261 59.4944 40.9261C59.9862 40.9261 60.3765 41.0863 60.6652 41.4066C60.9585 41.7225 61.1051 42.1669 61.1051 42.7399L61.0983 42.8076H58.4928C58.5018 43.1324 58.6101 43.3941 58.8176 43.5926C59.0252 43.7911 59.2733 43.8904 59.5621 43.8904C59.9591 43.8904 60.2704 43.6919 60.496 43.2948L61.051 43.5655C60.9021 43.8453 60.6945 44.0641 60.4283 44.222C60.1667 44.3799 59.8689 44.4589 59.535 44.4589ZM58.5402 42.2932H60.4419C60.4238 42.0631 60.3291 41.8736 60.1576 41.7247C59.9907 41.5713 59.7651 41.4946 59.4809 41.4946C59.2463 41.4946 59.0432 41.5668 58.8718 41.7112C58.7048 41.8556 58.5943 42.0496 58.5402 42.2932ZM61.6745 41.0344H62.2701V41.4946H62.2971C62.3919 41.3322 62.5362 41.1968 62.7303 41.0886C62.9288 40.9803 63.1341 40.9261 63.3461 40.9261C63.7522 40.9261 64.0635 41.0434 64.2801 41.2781C64.5011 41.5082 64.6117 41.8375 64.6117 42.2661V44.3506H63.989V42.3067C63.9755 41.7653 63.7025 41.4946 63.1702 41.4946C62.922 41.4946 62.7145 41.5961 62.5475 41.7992C62.3806 41.9977 62.2971 42.2368 62.2971 42.5165V44.3506H61.6745V41.0344ZM68.4926 40.2697L67.7007 42.4556H69.3114L68.5196 40.2697H68.4926ZM67.0172 44.3506H66.3269L68.1542 39.5049H68.858L70.6853 44.3506H69.995L69.528 43.0377H67.4909L67.0172 44.3506ZM71.8762 44.3506H71.2536V39.5049H71.8762V44.3506ZM76.4885 44.4589C75.7711 44.4589 75.1711 44.2175 74.6883 43.7347C74.2101 43.252 73.9709 42.6496 73.9709 41.9278C73.9709 41.2059 74.2101 40.6058 74.6883 40.1276C75.1666 39.6403 75.7666 39.3966 76.4885 39.3966C77.2194 39.3966 77.8127 39.6606 78.2684 40.1885L77.8217 40.6216C77.4743 40.202 77.0299 39.9922 76.4885 39.9922C75.9516 39.9922 75.5027 40.1727 75.1417 40.5336C74.7853 40.89 74.6071 41.3548 74.6071 41.9278C74.6071 42.5008 74.7853 42.9655 75.1417 43.3219C75.5027 43.6828 75.9516 43.8633 76.4885 43.8633C77.0525 43.8633 77.542 43.6264 77.9571 43.1527L78.4105 43.5926C78.1804 43.8678 77.8984 44.0821 77.5646 44.2355C77.2307 44.3844 76.872 44.4589 76.4885 44.4589ZM78.7082 42.6925C78.7082 42.1827 78.8684 41.7608 79.1887 41.4269C79.5136 41.0931 79.9219 40.9261 80.4137 40.9261C80.9054 40.9261 81.3115 41.0931 81.6318 41.4269C81.9567 41.7608 82.1191 42.1827 82.1191 42.6925C82.1191 43.2068 81.9567 43.6287 81.6318 43.9581C81.3115 44.2919 80.9054 44.4589 80.4137 44.4589C79.9219 44.4589 79.5136 44.2919 79.1887 43.9581C78.8684 43.6242 78.7082 43.2023 78.7082 42.6925ZM79.3308 42.6925C79.3308 43.0489 79.4346 43.3377 79.6421 43.5588C79.8497 43.7798 80.1069 43.8904 80.4137 43.8904C80.7205 43.8904 80.9776 43.7798 81.1852 43.5588C81.3927 43.3377 81.4965 43.0489 81.4965 42.6925C81.4965 42.3406 81.3927 42.0541 81.1852 41.833C80.9731 41.6074 80.716 41.4946 80.4137 41.4946C80.1114 41.4946 79.8542 41.6074 79.6421 41.833C79.4346 42.0541 79.3308 42.3406 79.3308 42.6925ZM83.2743 39.5049V44.3506H82.6516V39.5049H83.2743ZM84.6556 39.5049V44.3506H84.0329V39.5049H84.6556ZM86.2196 39.8907C86.2196 40.0125 86.1767 40.1163 86.091 40.202C86.0053 40.2877 85.9015 40.3306 85.7797 40.3306C85.6579 40.3306 85.5541 40.2877 85.4684 40.202C85.3826 40.1163 85.3398 40.0125 85.3398 39.8907C85.3398 39.7689 85.3826 39.6651 85.4684 39.5794C85.5541 39.4937 85.6579 39.4508 85.7797 39.4508C85.9015 39.4508 86.0053 39.4937 86.091 39.5794C86.1767 39.6651 86.2196 39.7689 86.2196 39.8907ZM86.091 41.0344V44.3506H85.4684V41.0344H86.091ZM88.3571 43.8904C88.6639 43.8904 88.9143 43.7798 89.1083 43.5588C89.3114 43.3377 89.4129 43.0489 89.4129 42.6925C89.4129 42.3451 89.3114 42.0586 89.1083 41.833C88.9098 41.6074 88.6594 41.4946 88.3571 41.4946C88.0593 41.4946 87.8089 41.6074 87.6059 41.833C87.4029 42.0586 87.3014 42.3451 87.3014 42.6925C87.3014 43.0444 87.4029 43.3309 87.6059 43.552C87.8089 43.7776 88.0593 43.8904 88.3571 43.8904ZM88.2556 44.4589C87.8225 44.4589 87.4502 44.2874 87.1389 43.9445C86.8321 43.5971 86.6787 43.1798 86.6787 42.6925C86.6787 42.2052 86.8321 41.7879 87.1389 41.4405C87.4502 41.0976 87.8225 40.9261 88.2556 40.9261C88.4992 40.9261 88.7203 40.978 88.9188 41.0818C89.1219 41.1856 89.2775 41.3232 89.3858 41.4946H89.4129L89.3858 41.0344V39.5049H90.0084V44.3506H89.4129V43.8904H89.3858C89.2775 44.0618 89.1219 44.1994 88.9188 44.3032C88.7203 44.407 88.4992 44.4589 88.2556 44.4589ZM92.2234 44.4589C91.7361 44.4589 91.3346 44.2919 91.0188 43.9581C90.7029 43.6242 90.545 43.2023 90.545 42.6925C90.545 42.1872 90.6984 41.7676 91.0052 41.4337C91.312 41.0953 91.7046 40.9261 92.1828 40.9261C92.6746 40.9261 93.0649 41.0863 93.3536 41.4066C93.6469 41.7225 93.7935 42.1669 93.7935 42.7399L93.7867 42.8076H91.1812C91.1902 43.1324 91.2985 43.3941 91.506 43.5926C91.7136 43.7911 91.9617 43.8904 92.2505 43.8904C92.6475 43.8904 92.9588 43.6919 93.1844 43.2948L93.7394 43.5655C93.5905 43.8453 93.3829 44.0641 93.1167 44.222C92.8551 44.3799 92.5573 44.4589 92.2234 44.4589ZM91.2286 42.2932H93.1303C93.1122 42.0631 93.0175 41.8736 92.846 41.7247C92.6791 41.5713 92.4535 41.4946 92.1693 41.4946C91.9347 41.4946 91.7316 41.5668 91.5602 41.7112C91.3932 41.8556 91.2827 42.0496 91.2286 42.2932ZM96.9338 43.4302C96.9338 43.7189 96.8075 43.9626 96.5548 44.1611C96.3022 44.3596 95.9841 44.4589 95.6006 44.4589C95.2667 44.4589 94.9735 44.3731 94.7208 44.2017C94.4681 44.0257 94.2877 43.7956 94.1794 43.5114L94.7343 43.2745C94.8155 43.473 94.9328 43.6287 95.0862 43.7415C95.2442 43.8498 95.4156 43.9039 95.6006 43.9039C95.7991 43.9039 95.9638 43.8611 96.0946 43.7753C96.23 43.6896 96.2977 43.5881 96.2977 43.4708C96.2977 43.2587 96.1352 43.1031 95.8104 43.0038L95.2419 42.8617C94.5967 42.6993 94.2741 42.388 94.2741 41.9278C94.2741 41.6255 94.3959 41.3841 94.6396 41.2036C94.8877 41.0186 95.2036 40.9261 95.5871 40.9261C95.8803 40.9261 96.1443 40.9961 96.3789 41.1359C96.618 41.2758 96.7849 41.463 96.8797 41.6977L96.3247 41.9278C96.2616 41.7879 96.1578 41.6796 96.0134 41.6029C95.8736 41.5217 95.7156 41.4811 95.5397 41.4811C95.3773 41.4811 95.2306 41.5217 95.0998 41.6029C94.9735 41.6841 94.9103 41.7834 94.9103 41.9007C94.9103 42.0902 95.0885 42.2255 95.4449 42.3067L95.9457 42.4353C96.6045 42.5978 96.9338 42.9294 96.9338 43.4302ZM98.342 43.931C98.342 44.0573 98.2969 44.1656 98.2067 44.2558C98.121 44.3461 98.0127 44.3912 97.8818 44.3912C97.7555 44.3912 97.6472 44.3461 97.557 44.2558C97.4667 44.1656 97.4216 44.0573 97.4216 43.931C97.4216 43.8001 97.4667 43.6919 97.557 43.6061C97.6472 43.5159 97.7555 43.4708 97.8818 43.4708C98.0127 43.4708 98.121 43.5159 98.2067 43.6061C98.2969 43.6919 98.342 43.8001 98.342 43.931ZM99.915 43.931C99.915 44.0573 99.8699 44.1656 99.7796 44.2558C99.6939 44.3461 99.5856 44.3912 99.4548 44.3912C99.3285 44.3912 99.2202 44.3461 99.1299 44.2558C99.0397 44.1656 98.9946 44.0573 98.9946 43.931C98.9946 43.8001 99.0397 43.6919 99.1299 43.6061C99.2202 43.5159 99.3285 43.4708 99.4548 43.4708C99.5856 43.4708 99.6939 43.5159 99.7796 43.6061C99.8699 43.6919 99.915 43.8001 99.915 43.931ZM101.488 43.931C101.488 44.0573 101.443 44.1656 101.353 44.2558C101.267 44.3461 101.159 44.3912 101.028 44.3912C100.901 44.3912 100.793 44.3461 100.703 44.2558C100.613 44.1656 100.568 44.0573 100.568 43.931C100.568 43.8001 100.613 43.6919 100.703 43.6061C100.793 43.5159 100.901 43.4708 101.028 43.4708C101.159 43.4708 101.267 43.5159 101.353 43.6061C101.443 43.6919 101.488 43.8001 101.488 43.931ZM103.061 43.931C103.061 44.0573 103.016 44.1656 102.926 44.2558C102.84 44.3461 102.732 44.3912 102.601 44.3912C102.474 44.3912 102.366 44.3461 102.276 44.2558C102.186 44.1656 102.14 44.0573 102.14 43.931C102.14 43.8001 102.186 43.6919 102.276 43.6061C102.366 43.5159 102.474 43.4708 102.601 43.4708C102.732 43.4708 102.84 43.5159 102.926 43.6061C103.016 43.6919 103.061 43.8001 103.061 43.931ZM104.634 43.931C104.634 44.0573 104.589 44.1656 104.499 44.2558C104.413 44.3461 104.304 44.3912 104.174 44.3912C104.047 44.3912 103.939 44.3461 103.849 44.2558C103.759 44.1656 103.713 44.0573 103.713 43.931C103.713 43.8001 103.759 43.6919 103.849 43.6061C103.939 43.5159 104.047 43.4708 104.174 43.4708C104.304 43.4708 104.413 43.5159 104.499 43.6061C104.589 43.6919 104.634 43.8001 104.634 43.931Z" fill="#202124"/>
<path d="M5.54405 3.09441V14H3.94641V3.09441H0.473297V1.56624H9.01717V3.09441H5.54405ZM9.88612 1.56624H11.4838V5.49086L11.4143 6.67172H11.4838C11.7269 6.25495 12.0973 5.90763 12.5952 5.62979C13.1045 5.35194 13.6313 5.21301 14.1754 5.21301C15.2174 5.21301 16.0162 5.51401 16.5719 6.11602C17.1392 6.70645 17.4228 7.55158 17.4228 8.6514V14H15.8252V8.96398C15.8252 7.43581 15.1479 6.67172 13.7934 6.67172C13.1451 6.67172 12.5952 6.94378 12.1437 7.4879C11.7037 8.02045 11.4838 8.64561 11.4838 9.36339V14H9.88612V1.56624ZM22.5976 14.2778C21.3473 14.2778 20.3169 13.8495 19.5065 12.9928C18.6961 12.1361 18.2909 11.0536 18.2909 9.74543C18.2909 8.4488 18.6846 7.37213 19.4718 6.51543C20.259 5.64715 21.2662 5.21301 22.4934 5.21301C23.7553 5.21301 24.7567 5.624 25.4977 6.44597C26.2502 7.25636 26.6264 8.3967 26.6264 9.86699L26.6091 10.0406H19.9233C19.9465 10.8742 20.2243 11.5457 20.7568 12.0551C21.2894 12.5644 21.9261 12.8191 22.6671 12.8191C23.6858 12.8191 24.4847 12.3097 25.0635 11.291L26.4875 11.9856C26.1054 12.7034 25.5729 13.2649 24.8899 13.6701C24.2184 14.0753 23.4543 14.2778 22.5976 14.2778ZM20.0449 8.72086H24.9246C24.8783 8.13043 24.6352 7.64419 24.1952 7.26215C23.7669 6.86853 23.188 6.67172 22.4587 6.67172C21.8567 6.67172 21.3357 6.85695 20.8958 7.22742C20.4674 7.59789 20.1838 8.0957 20.0449 8.72086ZM31.139 14V1.56624H34.9421C36.8407 1.56624 38.3631 2.1393 39.5092 3.28543C40.6669 4.43156 41.2458 5.93079 41.2458 7.78312C41.2458 9.64703 40.6669 11.152 39.5092 12.2982C38.3631 13.4327 36.8407 14 34.9421 14H31.139ZM32.7367 3.09441V12.4718H34.9421C36.3892 12.4718 37.5296 12.0608 38.3631 11.2389C39.1967 10.4053 39.6134 9.25341 39.6134 7.78312C39.6134 6.32441 39.1967 5.17828 38.3631 4.34473C37.5296 3.51118 36.3892 3.09441 34.9421 3.09441H32.7367ZM43.5104 11.3952C43.5104 11.8119 43.684 12.1592 44.0313 12.4371C44.3902 12.7149 44.807 12.8539 45.2817 12.8539C45.9531 12.8539 46.5494 12.605 47.0703 12.1072C47.6029 11.6093 47.8691 11.0247 47.8691 10.3532C47.3713 9.95961 46.6767 9.7628 45.7853 9.7628C45.137 9.7628 44.5928 9.91909 44.1529 10.2317C43.7246 10.5442 43.5104 10.9321 43.5104 11.3952ZM45.5769 5.21301C46.7577 5.21301 47.6897 5.53138 48.3727 6.16812C49.0558 6.79328 49.3973 7.65577 49.3973 8.75559V14H47.8691V12.8191H47.7997C47.1398 13.7916 46.2599 14.2778 45.1601 14.2778C44.2224 14.2778 43.4351 14 42.7984 13.4443C42.1732 12.8886 41.8606 12.194 41.8606 11.3604C41.8606 10.4806 42.1906 9.78016 42.8505 9.25919C43.522 8.73823 44.4134 8.47774 45.5248 8.47774C46.4741 8.47774 47.2556 8.6514 47.8691 8.99871V8.63403C47.8691 8.07833 47.6492 7.60946 47.2093 7.22742C46.7693 6.8338 46.2541 6.63699 45.6637 6.63699C44.7723 6.63699 44.0661 7.01324 43.5451 7.76575L42.1385 6.88011C42.9142 5.76871 44.0603 5.21301 45.5769 5.21301ZM53.8776 14.1389C53.183 14.1389 52.6042 13.9247 52.1411 13.4964C51.6896 13.068 51.458 12.4718 51.4465 11.7077V6.94957H49.953V5.49086H51.4465V2.88602H53.0441V5.49086H55.128V6.94957H53.0441V11.1868C53.0441 11.7541 53.1541 12.1419 53.374 12.3503C53.594 12.5471 53.8429 12.6455 54.1208 12.6455C54.2481 12.6455 54.3697 12.6339 54.4854 12.6108C54.6128 12.576 54.7286 12.5355 54.8327 12.4892L55.3363 13.9132C54.9196 14.0637 54.4333 14.1389 53.8776 14.1389ZM57.1207 11.3952C57.1207 11.8119 57.2943 12.1592 57.6416 12.4371C58.0005 12.7149 58.4173 12.8539 58.892 12.8539C59.5634 12.8539 60.1596 12.605 60.6806 12.1072C61.2132 11.6093 61.4794 11.0247 61.4794 10.3532C60.9816 9.95961 60.287 9.7628 59.3956 9.7628C58.7472 9.7628 58.2031 9.91909 57.7632 10.2317C57.3348 10.5442 57.1207 10.9321 57.1207 11.3952ZM59.1872 5.21301C60.368 5.21301 61.3 5.53138 61.983 6.16812C62.6661 6.79328 63.0076 7.65577 63.0076 8.75559V14H61.4794V12.8191H61.41C60.7501 13.7916 59.8702 14.2778 58.7704 14.2778C57.8327 14.2778 57.0454 14 56.4087 13.4443C55.7835 12.8886 55.4709 12.194 55.4709 11.3604C55.4709 10.4806 55.8009 9.78016 56.4608 9.25919C57.1322 8.73823 58.0237 8.47774 59.1351 8.47774C60.0844 8.47774 60.8658 8.6514 61.4794 8.99871V8.63403C61.4794 8.07833 61.2595 7.60946 60.8195 7.22742C60.3796 6.8338 59.8644 6.63699 59.274 6.63699C58.3826 6.63699 57.6764 7.01324 57.1554 7.76575L55.7488 6.88011C56.5244 5.76871 57.6706 5.21301 59.1872 5.21301ZM75.5367 11.8467L76.7002 13.3748L75.502 14.2778L74.6511 13.1491C73.806 13.9016 72.8451 14.2778 71.7684 14.2778C70.5065 14.2778 69.4356 13.8553 68.5558 13.0102C67.6759 12.165 67.236 11.1231 67.236 9.88436C67.236 9.155 67.427 8.46617 67.8091 7.81785C68.2027 7.15796 68.7294 6.62541 69.3893 6.22022C68.7873 5.44455 68.4863 4.75572 68.4863 4.15371C68.4863 3.36647 68.7815 2.695 69.372 2.1393C69.9624 1.57203 70.6686 1.28839 71.4906 1.28839C72.1504 1.28839 72.7235 1.47941 73.2097 1.86145C73.696 2.23192 74.0491 2.74131 74.269 3.38963L72.8972 4.11898C72.573 3.2507 72.1041 2.81656 71.4906 2.81656C71.0854 2.81656 70.7496 2.93812 70.4834 3.18124C70.2287 3.42436 70.1013 3.74851 70.1013 4.15371C70.1013 4.54733 70.2344 4.9178 70.5007 5.26511L74.6164 10.6484L75.7278 8.79032L76.9781 9.55441L75.5367 11.8467ZM68.6947 9.88436C68.6947 10.7179 68.9899 11.4183 69.5803 11.9856C70.1708 12.5413 70.9001 12.8191 71.7684 12.8191C72.5904 12.8191 73.2561 12.5413 73.7654 11.9856L70.275 7.38371C69.7887 7.64998 69.4009 8.00887 69.1115 8.46038C68.8336 8.91188 68.6947 9.38654 68.6947 9.88436ZM92.9954 8.28672C92.9954 10.0233 92.4802 11.4067 91.4499 12.4371C90.2922 13.6643 88.7698 14.2778 86.8827 14.2778C85.0767 14.2778 83.5485 13.6527 82.2982 12.4024C81.0479 11.152 80.4227 9.61229 80.4227 7.78312C80.4227 5.95394 81.0479 4.41419 82.2982 3.16387C83.5485 1.91355 85.0767 1.28839 86.8827 1.28839C87.7973 1.28839 88.6598 1.45047 89.4702 1.77462C90.2806 2.09878 90.9463 2.55608 91.4672 3.14651L90.3211 4.29264C89.9391 3.82955 89.4412 3.47066 88.8277 3.21597C88.2256 2.9497 87.5773 2.81656 86.8827 2.81656C85.5282 2.81656 84.3821 3.28543 83.4443 4.22317C82.5182 5.17249 82.0551 6.35914 82.0551 7.78312C82.0551 9.2071 82.5182 10.3937 83.4443 11.3431C84.3821 12.2808 85.5282 12.7497 86.8827 12.7497C88.1215 12.7497 89.1518 12.4024 89.9738 11.7077C90.7958 11.0131 91.2704 10.058 91.3978 8.84242H86.8827V7.34898H92.9086C92.9665 7.67314 92.9954 7.98572 92.9954 8.28672ZM97.8734 14.2778C96.623 14.2778 95.5927 13.8495 94.7823 12.9928C93.9719 12.1361 93.5667 11.0536 93.5667 9.74543C93.5667 8.4488 93.9603 7.37213 94.7476 6.51543C95.5348 5.64715 96.542 5.21301 97.7692 5.21301C99.0311 5.21301 100.032 5.624 100.773 6.44597C101.526 7.25636 101.902 8.3967 101.902 9.86699L101.885 10.0406H95.1991C95.2222 10.8742 95.5001 11.5457 96.0326 12.0551C96.5652 12.5644 97.2019 12.8191 97.9428 12.8191C98.9616 12.8191 99.7604 12.3097 100.339 11.291L101.763 11.9856C101.381 12.7034 100.849 13.2649 100.166 13.6701C99.4942 14.0753 98.7301 14.2778 97.8734 14.2778ZM95.3206 8.72086H100.2C100.154 8.13043 99.9109 7.64419 99.471 7.26215C99.0426 6.86853 98.4638 6.67172 97.7344 6.67172C97.1324 6.67172 96.6115 6.85695 96.1715 7.22742C95.7432 7.59789 95.4595 8.0957 95.3206 8.72086ZM102.842 5.49086H104.37V6.67172H104.44C104.683 6.25495 105.053 5.90763 105.551 5.62979C106.061 5.35194 106.587 5.21301 107.132 5.21301C108.173 5.21301 108.972 5.51401 109.528 6.11602C110.095 6.70645 110.379 7.55158 110.379 8.6514V14H108.781V8.75559C108.747 7.36634 108.046 6.67172 106.68 6.67172C106.043 6.67172 105.511 6.9322 105.082 7.45317C104.654 7.96256 104.44 8.57615 104.44 9.29392V14H102.842V5.49086ZM116.526 3.52855L114.494 9.13764H118.627L116.596 3.52855H116.526ZM112.74 14H110.969L115.658 1.56624H117.464L122.153 14H120.381L119.183 10.6311H113.956L112.74 14ZM124.687 14H123.09V1.56624H124.687V14ZM30.377 30H28.7794V17.5662H30.7244L36.7676 27.2389H36.837L36.7676 24.8424V17.5662H38.3652V30H36.6981L30.377 19.8585H30.3076L30.377 22.2549V30ZM43.8925 30.2778C42.6422 30.2778 41.6118 29.8495 40.8014 28.9928C39.991 28.1361 39.5858 27.0536 39.5858 25.7454C39.5858 24.4488 39.9794 23.3721 40.7667 22.5154C41.5539 21.6472 42.5611 21.213 43.7883 21.213C45.0502 21.213 46.0516 21.624 46.7925 22.446C47.5451 23.2564 47.9213 24.3967 47.9213 25.867L47.9039 26.0406H41.2182C41.2413 26.8742 41.5192 27.5457 42.0517 28.0551C42.5843 28.5644 43.221 28.8191 43.962 28.8191C44.9807 28.8191 45.7796 28.3097 46.3584 27.291L47.7824 27.9856C47.4003 28.7034 46.8678 29.2649 46.1848 29.6701C45.5133 30.0753 44.7492 30.2778 43.8925 30.2778ZM41.3398 24.7209H46.2195C46.1732 24.1304 45.9301 23.6442 45.4901 23.2622C45.0618 22.8685 44.4829 22.6717 43.7536 22.6717C43.1516 22.6717 42.6306 22.857 42.1907 23.2274C41.7623 23.5979 41.4787 24.0957 41.3398 24.7209ZM52.738 25.676L55.7769 30H53.9014L51.8002 26.8568L49.7337 30H47.8582L50.8625 25.676L47.9277 21.4909H49.7337L51.8349 24.4951L53.832 21.4909H55.7075L52.738 25.676ZM63.829 30H62.3008V28.8191H62.2314C61.9883 29.2359 61.612 29.5832 61.1026 29.8611C60.6048 30.1389 60.0838 30.2778 59.5397 30.2778C58.4978 30.2778 57.6932 29.9826 57.1259 29.3922C56.5702 28.7902 56.2923 27.9393 56.2923 26.8395V21.4909H57.89V26.7353C57.9247 28.1245 58.6251 28.8191 59.9912 28.8191C60.6279 28.8191 61.1605 28.5644 61.5888 28.0551C62.0172 27.5341 62.2314 26.9147 62.2314 26.1969V21.4909H63.829V30ZM71.6801 27.6383C71.6801 28.3792 71.356 29.0044 70.7077 29.5138C70.0594 30.0232 69.2432 30.2778 68.2591 30.2778C67.4024 30.2778 66.6499 30.0579 66.0016 29.618C65.3533 29.1665 64.8902 28.576 64.6124 27.8467L66.0363 27.2389C66.2447 27.7483 66.5457 28.1477 66.9393 28.4371C67.3445 28.7149 67.7845 28.8539 68.2591 28.8539C68.7685 28.8539 69.1911 28.7439 69.5268 28.5239C69.8741 28.304 70.0478 28.0435 70.0478 27.7425C70.0478 27.1984 69.631 26.7989 68.7975 26.5442L67.3388 26.1796C65.6832 25.7628 64.8555 24.964 64.8555 23.7831C64.8555 23.0075 65.1681 22.3881 65.7932 21.925C66.43 21.4503 67.2403 21.213 68.2244 21.213C68.9769 21.213 69.6542 21.3925 70.2562 21.7513C70.8698 22.1102 71.2981 22.5907 71.5412 23.1927L70.1172 23.7831C69.9552 23.4242 69.6889 23.1464 69.3184 22.9496C68.9595 22.7412 68.5543 22.637 68.1028 22.637C67.6861 22.637 67.3098 22.7412 66.9741 22.9496C66.6499 23.158 66.4878 23.4127 66.4878 23.7137C66.4878 24.1999 66.9451 24.5472 67.8597 24.7556L69.1448 25.0855C70.835 25.5023 71.6801 26.3532 71.6801 27.6383ZM80.1512 22.4633C80.6027 22.4633 81.0252 22.556 81.4189 22.7412C81.8125 22.9148 82.1482 23.158 82.4261 23.4705C82.7155 23.7831 82.9412 24.1594 83.1033 24.5993C83.277 25.0392 83.3638 25.5197 83.3638 26.0406C83.3638 26.7005 83.2365 27.2968 82.9818 27.8293C82.7386 28.3503 82.4087 28.796 81.9919 29.1665C81.5867 29.5253 81.1121 29.8032 80.5679 30C80.0354 30.1852 79.4739 30.2778 78.8835 30.2778C78.3625 30.2778 77.8705 30.1852 77.4074 30C76.9443 29.8263 76.5449 29.5832 76.2092 29.2706C75.8734 28.9465 75.6072 28.5644 75.4104 28.1245C75.2135 27.673 75.1151 27.1752 75.1151 26.6311C75.1151 26.249 75.1557 25.8901 75.2367 25.5544C75.3293 25.2187 75.4625 24.8945 75.6361 24.5819C75.8098 24.2578 76.0239 23.9336 76.2786 23.6095C76.5333 23.2737 76.8285 22.9148 77.1643 22.5328L81.2799 17.8441L82.4087 18.7297L78.9182 22.7238L78.9529 22.7585C79.1266 22.6659 79.306 22.5965 79.4913 22.5502C79.6765 22.4923 79.8965 22.4633 80.1512 22.4633ZM79.005 28.7497C79.3871 28.7497 79.7402 28.6918 80.0643 28.576C80.4001 28.4487 80.6895 28.275 80.9326 28.0551C81.1873 27.8235 81.3841 27.5515 81.523 27.2389C81.662 26.9147 81.7314 26.5558 81.7314 26.1622C81.7314 25.4907 81.5173 24.9466 81.0889 24.5298C80.6721 24.1015 80.1222 23.8873 79.4392 23.8873C79.034 23.8873 78.6635 23.9568 78.3278 24.0957C78.0036 24.2346 77.72 24.4256 77.4769 24.6688C77.2453 24.9119 77.0659 25.2013 76.9385 25.537C76.8112 25.8612 76.7475 26.2143 76.7475 26.5963C76.7475 26.9089 76.8054 27.1984 76.9212 27.4646C77.0485 27.7309 77.2164 27.9624 77.4248 28.1592C77.6332 28.3445 77.8705 28.4892 78.1368 28.5934C78.4146 28.6976 78.704 28.7497 79.005 28.7497ZM84.9932 30.1042C84.6574 30.1042 84.3738 29.9942 84.1423 29.7742C83.9223 29.5427 83.8123 29.2591 83.8123 28.9233C83.8123 28.5876 83.9223 28.3097 84.1423 28.0898C84.3738 27.8582 84.6574 27.7425 84.9932 27.7425C85.3289 27.7425 85.6068 27.8582 85.8267 28.0898C86.0583 28.3097 86.174 28.5876 86.174 28.9233C86.174 29.2591 86.0583 29.5427 85.8267 29.7742C85.6068 29.9942 85.3289 30.1042 84.9932 30.1042ZM92.0336 30.2778C91.42 30.2778 90.8643 30.1563 90.3665 29.9132C89.8687 29.6701 89.4461 29.3285 89.0988 28.8886C88.7515 28.4371 88.4852 27.893 88.3 27.2562C88.1147 26.6195 88.0221 25.9017 88.0221 25.1029C88.0221 24.1189 88.1668 23.1869 88.4563 22.307C88.7573 21.4272 89.1682 20.6573 89.6892 19.9974C90.2102 19.3375 90.8238 18.8166 91.53 18.4345C92.2362 18.0409 93.0003 17.8441 93.8222 17.8441C95.0957 17.8441 96.0855 18.2956 96.7917 19.1986C97.4979 20.1016 97.851 21.3635 97.851 22.9843C97.851 23.9799 97.7005 24.9235 97.3995 25.8149C97.1101 26.6947 96.7049 27.4646 96.1839 28.1245C95.663 28.7844 95.0494 29.3112 94.3432 29.7048C93.637 30.0868 92.8671 30.2778 92.0336 30.2778ZM92.1725 28.7497C92.6935 28.7497 93.1913 28.605 93.6659 28.3155C94.1522 28.0261 94.5805 27.6325 94.951 27.1347C95.333 26.6253 95.634 26.0291 95.854 25.346C96.0855 24.6514 96.2013 23.9105 96.2013 23.1232C96.2013 21.9771 95.9871 21.0683 95.5588 20.3968C95.142 19.7138 94.4995 19.3723 93.6312 19.3723C93.1334 19.3723 92.6472 19.5228 92.1725 19.8238C91.6978 20.1248 91.2753 20.5358 90.9048 21.0567C90.5343 21.5661 90.2333 22.1623 90.0018 22.8454C89.7818 23.5168 89.6718 24.2346 89.6718 24.9987C89.6718 26.2027 89.8976 27.1289 90.3491 27.7772C90.8006 28.4255 91.4084 28.7497 92.1725 28.7497Z" fill="#202124"/>
</svg>
