<svg width="153" height="27" viewBox="0 0 153 27" fill="none" xmlns="http://www.w3.org/2000/svg">
<path d="M27.7803 10.2787H17.1775L13.8901 0L10.6028 10.2787H0L8.56558 16.6219L5.32455 26.8543L13.8901 20.5111L22.4557 26.8543L19.1684 16.5756L27.7803 10.2787Z" fill="#FFCE31"/>
<path d="M58.8525 10.2787H48.2497L44.9624 0L41.6751 10.2787H31.0723L39.6378 16.6219L36.3968 26.8543L44.9624 20.5111L53.528 26.8543L50.2407 16.5756L58.8525 10.2787Z" fill="#FFCE31"/>
<path d="M89.9268 10.2787H79.3239L76.0366 0L72.7493 10.2787H62.1465L70.7121 16.6219L67.471 26.8543L76.0366 20.5111L84.6022 26.8543L81.3149 16.5756L89.9268 10.2787Z" fill="#FFCE31"/>
<path d="M120.999 10.2787H110.396L107.109 0L103.822 10.2787H93.2188L101.784 16.6219L98.5433 26.8543L107.109 20.5111L115.674 26.8543L112.387 16.5756L120.999 10.2787Z" fill="#FFCE31"/>
<path d="M152.071 10.2787H141.468L138.181 0L134.894 10.2787H124.291L132.857 16.6219L129.616 26.8543L138.181 20.5111L146.747 26.8543L143.459 16.5756L152.071 10.2787Z" fill="#FFCE31"/>
</svg>
