<svg width="209" height="68" viewBox="0 0 209 68" fill="none" xmlns="http://www.w3.org/2000/svg">
<path d="M39.7932 14.3984C28.4247 14.3984 20.8242 21.0019 20.8242 33.8545V43.0027C21.9514 42.4551 23.1752 42.1652 24.4956 42.1652C25.8161 42.1652 27.0721 42.4873 28.1992 43.0349V33.8545C28.1992 25.5438 32.7724 21.2596 39.7932 21.2596C46.8139 21.2596 51.3871 25.5438 51.3871 33.8545V53.8581H58.7621V33.8545C58.7621 20.9375 51.1295 14.3984 39.7932 14.3984Z" fill="#202124"/>
<path d="M62.7871 34.6276C62.7871 22.9668 71.3537 14.3984 83.463 14.3984C95.5722 14.3984 104.01 22.9668 104.01 34.6276V37.3656H70.5486C71.6436 44.2267 76.7642 48.0278 83.463 48.0278C88.4548 48.0278 91.933 46.4816 94.1873 43.1315H102.368C99.4046 50.2826 92.416 54.8889 83.463 54.8889C71.3215 54.8567 62.7871 46.3205 62.7871 34.6276ZM96.2163 30.7621C94.7348 24.6096 89.6786 21.2596 83.463 21.2596C77.2473 21.2596 72.2555 24.6741 70.774 30.7621H96.2163Z" fill="#202124"/>
<path d="M107.973 34.6276C107.973 22.9668 116.539 14.3984 128.649 14.3984C140.758 14.3984 149.324 22.9668 149.324 34.6276C149.324 46.2883 140.758 54.8567 128.649 54.8567C116.539 54.8567 107.973 46.3205 107.973 34.6276ZM141.853 34.6276C141.853 26.8323 136.571 21.2596 128.616 21.2596C120.662 21.2596 115.38 26.8645 115.38 34.6276C115.38 42.3907 120.662 47.9955 128.616 47.9955C136.571 47.9955 141.853 42.4229 141.853 34.6276Z" fill="#202124"/>
<path d="M191.578 61.4925H192.448C197.182 61.4925 198.985 59.3987 198.985 53.9548V15.687H206.36V53.4717C206.36 62.9742 202.625 67.8704 193.124 67.8704H191.578V61.4925Z" fill="#202124"/>
<path d="M187.873 57.5629H180.498V48.4469H161.755C158.019 48.4469 154.766 46.6108 153.285 43.6795C151.9 40.9093 152.286 37.6559 154.283 34.9178L171.127 12.8204C173.542 9.56701 177.632 8.24632 181.497 9.5348C185.361 10.8233 187.873 14.27 187.873 18.3287V41.8756H193.413V48.4469H187.873V57.5629ZM160.499 38.9443C160.273 39.2343 160.145 39.6208 160.145 40.0395C160.145 41.0703 160.982 41.9078 162.012 41.9078H180.531V18.1676C180.531 16.9436 179.629 16.4926 179.242 16.3637C179.081 16.3315 178.856 16.2671 178.566 16.2671C178.115 16.2671 177.568 16.4282 177.085 17.0402L160.499 38.9443Z" fill="#202124"/>
<path d="M3.33683 34.9818C2.37067 35.465 1.46892 36.2703 0.824815 37.3333C0.180708 38.3963 -0.0769346 39.5237 0.0196815 40.6511C0.116298 42.6805 1.24349 44.5488 3.07919 45.5795C4.78608 46.5459 6.7184 46.3204 8.5541 45.9017C10.8085 45.3218 12.7408 45.0964 14.7697 46.3204C14.7697 46.3204 14.7697 46.3204 14.8664 46.3204C18.3445 48.3498 18.3445 53.4393 14.8664 55.4686C14.8664 55.4686 14.8664 55.4686 14.7697 55.4686C12.7408 56.6927 10.8085 56.435 8.5541 55.8874C6.78281 55.4042 4.85049 55.1465 3.07919 56.2095C1.21128 57.2725 0.180708 59.2052 0.0196815 61.1379C-0.0769346 62.2654 0.180708 63.3928 0.824815 64.4558C1.46892 65.5188 2.27406 66.3241 3.33683 66.8072C5.10813 67.7092 7.29809 67.7092 9.1338 66.6462C10.8407 65.6798 11.6458 63.8115 12.1289 62.0399C12.773 59.785 13.5137 57.9812 15.6071 56.8537C17.636 55.6297 19.5683 55.8874 21.8227 56.435C23.594 56.9182 25.5263 57.1759 27.2976 56.1129C29.1655 55.0499 30.1961 53.1172 30.3571 51.1844C30.3571 51.0234 30.3571 50.9267 30.3571 50.7657C30.3571 50.6046 30.3571 50.508 30.3571 50.3469C30.2605 48.3176 29.1333 46.4493 27.2976 45.4185C25.5907 44.4521 23.6584 44.6776 21.8227 45.0964C19.5683 45.6762 17.636 45.9017 15.6071 44.6776C13.5781 43.4536 12.773 41.7463 12.1289 39.4915C11.6458 37.7198 10.8407 35.9159 9.1338 34.8852C7.26589 34.1121 5.10813 34.1121 3.33683 34.9818Z" fill="#014063"/>
<path d="M202.687 0C199.209 0 196.375 2.83465 196.375 6.31355C196.375 9.79244 199.209 12.6271 202.687 12.6271C206.165 12.6271 209 9.79244 209 6.31355C209 2.83465 206.165 0 202.687 0Z" fill="#014063"/>
</svg>
